<?xml version="1.0" encoding="iso-8859-1"?>
<!-- Generator: Adobe Illustrator 19.0.0, SVG Export Plug-In . SVG Version: 6.00 Build 0)  -->
<svg version="1.1" id="Capa_1" xmlns="http://www.w3.org/2000/svg" xmlns:xlink="http://www.w3.org/1999/xlink" x="0px" y="0px"
	 viewBox="0 0 512 512" style="enable-background:new 0 0 512 512;" xml:space="preserve">
<g>
	<g>
		<path d="M191.889,224.485c-4.142,0-7.499,3.358-7.499,7.499v12.025c0,6.915-5.625,12.541-12.541,12.541
			s-12.541-5.625-12.541-12.541v-16.033c0-6.915,5.625-12.541,12.541-12.541c4.142,0,7.499-3.358,7.499-7.499
			c0-4.142-3.358-7.499-7.499-7.499c-15.186,0-27.54,12.354-27.54,27.54v16.033c-0.001,15.186,12.354,27.54,27.54,27.54
			c15.186,0,27.54-12.354,27.54-27.54v-12.025C199.388,227.843,196.03,224.485,191.889,224.485z"/>
	</g>
</g>
<g>
	<g>
		<path d="M360.233,224.485c-4.142,0-7.499,3.358-7.499,7.499v12.025c0,6.915-5.625,12.541-12.541,12.541
			s-12.542-5.625-12.542-12.541v-16.033c0-6.915,5.627-12.541,12.542-12.541c4.142,0,7.499-3.358,7.499-7.499
			c0-4.142-3.358-7.499-7.499-7.499c-15.186,0-27.541,12.354-27.541,27.54v16.033c0,15.186,12.355,27.54,27.541,27.54
			s27.54-12.354,27.54-27.54v-12.025C367.733,227.843,364.375,224.485,360.233,224.485z"/>
	</g>
</g>
<g>
	<g>
		<path d="M448.305,87.097c-2.736-3.109-7.475-3.411-10.584-0.675c-3.109,2.737-3.412,7.475-0.675,10.584
			c40.418,45.922,61.672,104.986,59.847,166.314c-1.833,61.598-26.854,119.533-70.453,163.132
			c-85.706,85.706-222.422,94.331-318.013,20.065c-3.271-2.542-7.982-1.95-10.523,1.321c-2.541,3.271-1.95,7.982,1.321,10.523
			c46.231,35.917,101.515,53.584,156.619,53.584c65.933,0,131.609-25.296,181.201-74.89
			c46.314-46.313,72.893-107.857,74.841-173.291C513.823,198.625,491.244,135.883,448.305,87.097z"/>
	</g>
</g>
<g>
	<g>
		<path d="M197.229,138.557c-2.912-2.932-7.656-2.946-10.597-0.043c-0.231,0.228-23.724,22.987-76.938,38.191
			c-3.982,1.138-6.289,5.289-5.151,9.271c0.941,3.294,3.944,5.44,7.207,5.44c0.682,0,1.376-0.094,2.064-0.291
			c57.324-16.378,82.368-40.951,83.406-41.989C200.143,146.214,200.142,141.487,197.229,138.557z"/>
	</g>
</g>
<g>
	<g>
		<path d="M345.754,372.586c-12.421-40.618-48.494-67.908-89.763-67.908s-77.341,27.29-89.762,67.907
			c-1.232,4.029-0.23,8.443,2.615,11.521c2.838,3.068,6.958,4.362,11.023,3.46c24.261-5.387,49.873-8.117,76.124-8.117
			c26.252,0,51.865,2.731,76.125,8.117c0.852,0.189,1.707,0.282,2.552,0.282c3.184,0,6.227-1.316,8.469-3.741
			C345.983,381.03,346.986,376.615,345.754,372.586z M255.991,364.449c-25.28,0-50.016,2.438-73.619,7.248
			c11.855-31.338,40.794-52.022,73.619-52.022c32.824,0,61.765,20.683,73.619,52.022
			C306.007,366.887,281.271,364.449,255.991,364.449z"/>
	</g>
</g>
<g>
	<g>
		<path d="M424.956,63.749C376.171,20.81,313.427-1.764,248.288,0.169C182.853,2.117,121.31,28.696,74.997,75.01
			c-38.148,38.148-62.9,86.36-71.581,139.425c-8.478,51.823-1.102,104.164,21.327,151.39c-0.419,3.544-0.65,7.047-0.65,10.484
			c0,30.656,24.941,55.597,55.597,55.597s55.596-24.942,55.596-55.598c0-20.43-7.817-45.506-23.236-74.533
			c-1.943-3.658-6.484-5.048-10.141-3.105c-3.658,1.943-5.048,6.483-3.105,10.141c14.055,26.458,21.483,49.798,21.483,67.495
			c0,22.386-18.212,40.599-40.599,40.599S39.09,398.693,39.09,376.307c0-35.08,28.021-80.538,40.607-99.184
			c0.79,1.167,1.639,2.439,2.537,3.805c2.275,3.461,6.926,4.423,10.386,2.147c3.461-2.275,4.423-6.925,2.147-10.386
			c-5.288-8.043-8.926-12.907-9.079-13.11c-1.417-1.889-3.639-3-5.999-3c-2.361,0-4.583,1.111-6,3
			c-1.564,2.085-30.275,40.716-43.283,81.241c-14.846-39.411-19.076-81.866-12.189-123.964
			c8.17-49.946,31.472-95.328,67.385-131.241c43.599-43.599,101.534-68.62,163.132-70.453
			c61.33-1.829,120.392,19.428,166.314,59.847c3.109,2.737,7.847,2.436,10.584-0.675C428.367,71.224,428.065,66.486,424.956,63.749z
			"/>
	</g>
</g>
<g>
	<g>
		<path d="M402.405,176.704c-53.214-15.204-76.707-37.963-76.921-38.174c-2.929-2.929-7.677-2.929-10.605,0
			c-2.929,2.929-2.929,7.677,0,10.605c1.038,1.038,26.082,25.612,83.407,41.989c0.687,0.197,1.38,0.291,2.063,0.291
			c3.263,0,6.266-2.147,7.207-5.44C408.693,181.993,406.387,177.842,402.405,176.704z"/>
	</g>
</g>
<g>
</g>
<g>
</g>
<g>
</g>
<g>
</g>
<g>
</g>
<g>
</g>
<g>
</g>
<g>
</g>
<g>
</g>
<g>
</g>
<g>
</g>
<g>
</g>
<g>
</g>
<g>
</g>
<g>
</g>
</svg>
