<svg xmlns="http://www.w3.org/2000/svg" xmlns:xlink="http://www.w3.org/1999/xlink" width="0" height="0" style="position:absolute">
	
		<symbol id="icon-audi" viewBox="0 0 512 512">
			<path d="M422.005 166C372.302 166 332 206.294 332 256s40.302 90 90.005 90S512 305.706 512 256s-40.292-90-89.995-90zm0 154.762c-35.704 0-64.748-29.056-64.748-64.762 0-35.707 29.044-64.752 64.748-64.752s64.748 29.045 64.748 64.752c0 35.706-29.043 64.762-64.748 64.762z" fill="#ccc"></path><path d="M421.995 166c-4.285 0-8.498.306-12.623.886 43.727 6.139 85.294 43.694 85.294 89.114s-41.568 82.975-85.294 89.114a90.76 90.76 0 0 0 12.623.886C471.698 346 512 305.706 512 256s-40.302-90-90.005-90z" fill="#a6a6a6"></path><path d="M311.996 166c-49.702 0-89.994 40.294-89.994 90s40.291 90 89.994 90S402 305.706 402 256s-40.302-90-90.004-90zm0 154.762c-35.704 0-64.747-29.056-64.747-64.762 0-35.707 29.043-64.752 64.747-64.752s64.758 29.045 64.758 64.752c0 35.706-29.054 64.762-64.758 64.762z" fill="#ccc"></path><path d="M311.996 166c-4.285 0-8.498.306-12.623.886 43.726 6.139 85.293 43.694 85.293 89.114s-41.567 82.975-85.293 89.114a90.76 90.76 0 0 0 12.623.886C361.698 346 402 305.706 402 256s-40.302-90-90.004-90z" fill="#a6a6a6"></path><path d="M200.005 166C150.302 166 110 206.294 110 256s40.302 90 90.005 90S290 305.706 290 256s-40.292-90-89.995-90zm0 154.762c-35.704 0-64.748-29.056-64.748-64.762 0-35.707 29.044-64.752 64.748-64.752s64.748 29.045 64.748 64.752c0 35.706-29.043 64.762-64.748 64.762z" fill="#ccc"></path><path d="M199.995 166c-4.285 0-8.498.306-12.623.886 43.727 6.139 85.294 43.694 85.294 89.114s-41.568 82.975-85.294 89.114a90.76 90.76 0 0 0 12.623.886C249.698 346 290 305.706 290 256s-40.302-90-90.005-90z" fill="#a6a6a6"></path><path d="M89.995 166C40.292 166 0 206.294 0 256s40.292 90 89.995 90S180 305.706 180 256s-40.302-90-90.005-90zm0 154.762c-35.704 0-64.748-29.056-64.748-64.762 0-35.707 29.044-64.752 64.748-64.752s64.759 29.045 64.759 64.752c-.001 35.706-29.055 64.762-64.759 64.762z" fill="#ccc"></path><path d="M89.995 166c-4.285 0-8.498.306-12.623.886 43.727 6.139 85.294 43.694 85.294 89.114s-41.568 82.975-85.294 89.114c4.125.58 8.338.886 12.623.886C139.698 346 180 305.706 180 256s-40.302-90-90.005-90z" fill="#a6a6a6"></path>
		</symbol>
	
		<symbol id="icon-bmw" viewBox="0 0 512 512">
			<circle cx="256" cy="256" r="256" fill="#202738"></circle><circle cx="256" cy="256" r="162.77" fill="#fff"></circle><path d="M256 93.231V256H93.231c0-89.863 72.906-162.769 162.769-162.769zm0 325.538V256h162.769c0 89.863-72.906 162.769-162.769 162.769z" fill="#2c44bf"></path><ellipse cx="256" cy="251.68" rx="256" ry="251.68" fill="#202738"></ellipse><ellipse cx="256" cy="251.68" rx="162.77" ry="160.02" fill="#fff"></ellipse><path d="M256 91.659c-4.293 0-8.546.166-12.755.487 83.933 6.397 150.014 75.379 150.014 159.537s-66.081 153.14-150.014 159.537c4.209.321 8.462.487 12.755.487 89.895 0 162.769-71.645 162.769-160.024S345.895 91.659 256 91.659z" fill="#cfcfcf"></path><path d="M256 91.659v160.024H93.231c0-88.347 72.906-160.024 162.769-160.024zm0 320.048V251.683h162.769c0 88.348-72.906 160.024-162.769 160.024z" fill="#2c44bf"></path><path d="M393.259 251.683c0 79.815-59.505 146.016-137.259 158.06v1.963c89.863 0 162.769-71.676 162.769-160.024h-25.51v.001z" fill="#263aa3"></path><path d="M256 0c-4.319 0-8.611.109-12.877.316 135.401 6.595 243.123 116.612 243.123 251.367S378.524 496.455 243.123 503.05c4.266.208 8.559.316 12.877.316 141.385 0 256-112.682 256-251.683S397.385 0 256 0z" fill="#191e2b"></path><path d="M266.289 17.472A17.607 17.607 0 0 0 256 20.792a17.607 17.607 0 0 0-10.289-3.32c-9.774 0-17.726 7.952-17.726 17.726v34.63a7.5 7.5 0 0 0 15 0v-34.63c0-1.503 1.223-2.726 2.726-2.726s2.726 1.223 2.726 2.726v34.63a7.5 7.5 0 0 0 7.5 7.5l.063-.003.063.003a7.5 7.5 0 0 0 7.5-7.5v-34.63c0-1.503 1.223-2.726 2.726-2.726s2.726 1.223 2.726 2.726v34.63c0 4.142 3.357 7.5 7.5 7.5s7.5-3.358 7.5-7.5v-34.63c0-9.775-7.952-17.726-17.726-17.726zM170.144 62.64c.459-3.806-.233-7.782-2.275-11.36a18.38 18.38 0 0 0-11.192-8.676 18.384 18.384 0 0 0-14.048 1.779l-19.431 11.091a7.497 7.497 0 0 0-2.796 10.232l10.908 19.11 10.908 19.11a7.498 7.498 0 0 0 10.232 2.796l19.431-11.091c8.86-5.058 11.954-16.381 6.896-25.24a18.353 18.353 0 0 0-8.633-7.751zm-20.08-5.229a3.485 3.485 0 0 1 2.659-.337 3.487 3.487 0 0 1 2.118 1.642 3.506 3.506 0 0 1-1.305 4.777l-12.917 7.373-3.472-6.082 12.917-7.373zm14.38 25.193l-12.917 7.373-3.472-6.083 12.917-7.373a3.49 3.49 0 0 1 2.659-.337 3.505 3.505 0 0 1 .813 6.42zM389.19 56.396a7.5 7.5 0 0 0-10.231 2.798l-17.16 30.079a2.724 2.724 0 0 1-4.996-.631 2.711 2.711 0 0 1 .262-2.07l17.16-30.08a7.5 7.5 0 0 0-2.798-10.231l-.055-.028c-.019-.011-.035-.024-.054-.034a7.5 7.5 0 0 0-10.231 2.798l-17.16 30.079a2.724 2.724 0 0 1-4.996-.631 2.711 2.711 0 0 1 .262-2.07l17.16-30.08a7.5 7.5 0 1 0-13.029-7.433l-17.16 30.079a17.612 17.612 0 0 0-1.701 13.46 17.607 17.607 0 0 0 8.314 10.72 17.62 17.62 0 0 0 8.756 2.337c.607 0 1.216-.041 1.825-.105a17.58 17.58 0 0 0 7.293 7.964 17.62 17.62 0 0 0 13.46 1.702 17.615 17.615 0 0 0 10.721-8.315l17.16-30.08a7.501 7.501 0 0 0-2.802-10.228z" fill="#ebebeb"></path>
		</symbol>
	
		<symbol id="icon-button-add" viewBox="0 0 20 18">
			<defs><path id="a" d="M185 642h13v-2h-11zm10.7-15.4l-2.3-2.3c-.4-.4-1-.4-1.4 0l-1.8 1.8 3.8 3.8 1.7-1.9c.4-.4.4-1 0-1.4zM178 642h3.8l11-11.1-3.8-3.8-11 11.1z"></path></defs><use xlink:href="#a" transform="translate(-178 -624)"></use>
		</symbol>
	
		<symbol id="icon-chevrolet" viewBox="0 0 512 512">
			<path d="M512 202.793c0 .511-.104 1.012-.291 1.45l-.166.344-54.292 106.487a3.824 3.824 0 0 1-.645.866 3.866 3.866 0 0 1-.686.543 3.64 3.64 0 0 1-1.944.553h-98.52a4.15 4.15 0 0 0-3.452 1.847 4.177 4.177 0 0 0-.707 2.327v31.054a3.72 3.72 0 0 1-1.092 2.64 3.695 3.695 0 0 1-2.63 1.096h-183.15a3.706 3.706 0 0 1-2.63-1.096 3.72 3.72 0 0 1-1.092-2.64V317.21c0-1.962-1.341-3.6-3.161-4.049a3.984 3.984 0 0 0-.998-.125H3.722a3.706 3.706 0 0 1-3.171-1.784A3.653 3.653 0 0 1 0 309.301c0-.511.104-1.002.291-1.45l.166-.344L54.76 201.009c.177-.313.395-.605.645-.856.198-.209.426-.386.676-.543a3.75 3.75 0 0 1 1.955-.553h98.51c1.144 0 2.183-.47 2.942-1.221a4.168 4.168 0 0 0 1.216-2.953v-31.148c0-1.033.416-1.962 1.092-2.64s1.611-1.096 2.63-1.096h183.15c1.019 0 1.955.417 2.63 1.096.364.365.645.793.832 1.283.166.417.26.877.26 1.357v31.148c0 .866.26 1.67.707 2.327v.01a4.167 4.167 0 0 0 3.452 1.837h152.822c1.029 0 1.955.417 2.63 1.096.208.209.385.438.541.689.352.563.55 1.231.55 1.951z" fill="#ccc"></path><path d="M188.598 284.936l1.216 37.739-22.768 22.94-5.25 5.29a3.72 3.72 0 0 1-1.092-2.64V317.21c0-1.962-1.341-3.6-3.161-4.049l31.055-28.225zm1.216-95.614l-1.216 37.826-29.111-29.311a4.168 4.168 0 0 0 1.216-2.953v-31.148a3.72 3.72 0 0 1 1.092-2.64l5.25 5.29 22.769 22.936z" fill="#e3e3e3"></path><path d="M350.205 161.096l-5.25 5.29-22.768 22.94H189.813l-22.768-22.94-5.25-5.29a3.712 3.712 0 0 1 2.63-1.096h183.15c1.019 0 1.954.417 2.63 1.096zm0 189.808a3.695 3.695 0 0 1-2.63 1.096h-183.15a3.706 3.706 0 0 1-2.63-1.096l5.25-5.29 22.768-22.94h132.373l22.768 22.94 5.251 5.29z" fill="#a6a6a6"></path><path d="M73.772 228.787l-27.208 54.149-39.65 24.393-.031.021-6.3 3.882-.031.021A3.651 3.651 0 0 1 0 309.301c0-.511.104-1.002.291-1.45l.166-.344L54.76 201.009c.177-.313.395-.605.645-.856.198-.209.426-.386.676-.543l3.868 6.376 13.823 22.801z" fill="#e3e3e3"></path><path d="M512 202.793c0 .511-.104 1.012-.291 1.45l-.166.344-54.292 106.487a3.824 3.824 0 0 1-.645.866 3.866 3.866 0 0 1-.686.543l-3.857-6.365-14.049-23.177 27.423-53.794 39.67-24.403 6.342-3.903a3.66 3.66 0 0 1 .551 1.952zm-159.996-5.583v.01s-27.635 28.184-27.822 28.184c-.094-.115-1.996 1.117-1.996 1.117v-37.2l28.019-28.226s.322.49.832 1.283c.166.417.26.877.26 1.357v31.148c0 .867.26 1.67.707 2.327zm0 117.673a4.177 4.177 0 0 0-.707 2.327v31.054a3.72 3.72 0 0 1-1.092 2.64l-28.019-28.226v-36.334h2.267l27.551 28.539z" fill="#8c8c8c"></path><path d="M465.589 233.223l-25.208 49.44a4.156 4.156 0 0 1-3.702 2.272H327.561a4.167 4.167 0 0 0-4.159 4.174v30.616a4.167 4.167 0 0 1-4.159 4.174H192.756a4.167 4.167 0 0 1-4.159-4.174V289.11a4.167 4.167 0 0 0-4.159-4.174H50.113c-3.109 0-5.118-3.298-3.702-6.075l25.208-49.44a4.156 4.156 0 0 1 3.702-2.272h109.118a4.167 4.167 0 0 0 4.159-4.174v-30.699a4.167 4.167 0 0 1 4.159-4.174h126.487a4.167 4.167 0 0 1 4.159 4.174v30.699a4.167 4.167 0 0 0 4.159 4.174h134.326c3.108-.001 5.117 3.297 3.701 6.074z" fill="#f3db53"></path><path d="M256 188.101v135.798h-63.244a4.167 4.167 0 0 1-4.159-4.174V289.11a4.167 4.167 0 0 0-4.159-4.174H50.113c-3.109 0-5.118-3.298-3.702-6.075l25.208-49.44a4.156 4.156 0 0 1 3.702-2.272h109.118a4.167 4.167 0 0 0 4.159-4.174v-30.699a4.167 4.167 0 0 1 4.159-4.174l63.243-.001z" fill="#f3c153"></path>
		</symbol>
	
		<symbol id="icon-citroen" viewBox="0 0 512.001 512.001">
			<path d="M511.948 265.445l-2.926 27.909a9.548 9.548 0 0 1-.597 2.48c-2.277 5.897-9.993 8.12-15.164 3.664a723.094 723.094 0 0 0-7.16-6.092c-114.684-96.687-216.343-131.812-228.817-135.891a4.115 4.115 0 0 0-2.559-.003c-12.696 4.15-118.374 40.655-235.985 141.985-5.851 5.042-14.948 1.533-15.762-6.144L.052 265.444c-.247-2.398.381-4.744 1.823-6.668C20.02 234.728 146.279 71.157 252.591 34.572c2.208-.76 4.6-.763 6.809-.003C347.005 64.74 448.305 181.29 491.304 234.707c9.138 11.351 15.638 19.851 18.821 24.07 1.442 1.924 2.071 4.271 1.823 6.668z" fill="#ccc"></path><path d="M509.023 293.354l-.597 2.48c-2.277 5.897-9.993 8.12-15.164 3.664-117.611-101.33-223.29-137.835-235.985-141.985a4.1 4.1 0 0 0-2.55 0c-12.695 4.15-118.374 40.655-235.985 141.985-5.851 5.042-14.948 1.533-15.762-6.144 0 0 180.909-166.268 253.022-166.268s253.021 166.268 253.021 166.268z" fill="#a6a6a6"></path><path d="M511.948 265.445l-2.926 27.909a9.548 9.548 0 0 1-.597 2.48c-2.277 5.897-9.993 8.12-15.164 3.664a723.094 723.094 0 0 0-7.16-6.092c4.152-19.759 5.172-42.059 5.202-58.699 9.138 11.351 15.638 19.851 18.821 24.07 1.443 1.924 2.072 4.271 1.824 6.668z" fill="#8c8c8c"></path><path fill="#fcee21" d="M270.42 261.408h-25.747l-.004-.003v-25.72l.004-.004h25.747l.003.004v25.72z"></path><path d="M156.934 143.807c-1.144.577-.416 2.305.797 1.891 20.78-7.08 60.432-18.612 98.269-18.612 37.715 0 76.576 11.457 97.005 18.543 1.211.42 1.952-1.301.812-1.885-22.756-11.67-68.568-33.123-97.817-33.123-29.301 0-75.957 21.531-99.066 33.186z" fill="#8c8c8c"></path><path d="M511.948 441.59l-2.926 27.909a9.538 9.538 0 0 1-.597 2.48c-2.277 5.897-9.993 8.12-15.164 3.664a723.094 723.094 0 0 0-7.16-6.092C371.417 372.863 269.758 337.739 257.284 333.66a4.115 4.115 0 0 0-2.559-.003c-12.696 4.15-118.374 40.655-235.985 141.985-5.851 5.042-14.948 1.533-15.762-6.144L.054 441.59c-.247-2.398.381-4.744 1.823-6.668 18.143-24.049 144.402-187.62 250.714-224.206 2.208-.76 4.6-.763 6.809-.003 87.605 30.171 188.905 146.721 231.904 200.138 9.138 11.351 15.638 19.851 18.821 24.07 1.442 1.925 2.071 4.272 1.823 6.669z" fill="#ccc"></path><path d="M509.023 469.499l-.597 2.48c-2.277 5.897-9.993 8.12-15.164 3.664-117.611-101.33-223.29-137.835-235.985-141.985a4.1 4.1 0 0 0-2.55 0c-12.695 4.15-118.374 40.655-235.985 141.985-5.851 5.042-14.948 1.533-15.762-6.144 0 0 180.909-166.268 253.022-166.268s253.021 166.268 253.021 166.268z" fill="#a6a6a6"></path><path d="M511.948 441.59l-2.926 27.909a9.538 9.538 0 0 1-.597 2.48c-2.277 5.897-9.993 8.12-15.164 3.664a723.094 723.094 0 0 0-7.16-6.092c4.152-19.759 5.172-42.059 5.202-58.699 9.138 11.351 15.638 19.851 18.821 24.07 1.443 1.924 2.072 4.271 1.824 6.668zM156.934 319.952c-1.144.577-.416 2.305.797 1.891 20.78-7.08 60.432-18.612 98.269-18.612 37.715 0 76.576 11.457 97.005 18.543 1.211.42 1.952-1.301.812-1.885-22.756-11.67-68.568-33.123-97.817-33.123-29.301-.001-75.957 21.53-99.066 33.186z" fill="#8c8c8c"></path>
		</symbol>
	
		<symbol id="icon-embarrassed" viewBox="0 0 512 512">
			<path d="M191.889 224.485a7.5 7.5 0 0 0-7.499 7.499v12.025c0 6.915-5.625 12.541-12.541 12.541s-12.541-5.625-12.541-12.541v-16.033c0-6.915 5.625-12.541 12.541-12.541a7.5 7.5 0 0 0 0-14.998c-15.186 0-27.54 12.354-27.54 27.54v16.033c-.001 15.186 12.354 27.54 27.54 27.54s27.54-12.354 27.54-27.54v-12.025a7.501 7.501 0 0 0-7.5-7.5zm168.344 0a7.5 7.5 0 0 0-7.499 7.499v12.025c0 6.915-5.625 12.541-12.541 12.541s-12.542-5.625-12.542-12.541v-16.033c0-6.915 5.627-12.541 12.542-12.541a7.5 7.5 0 0 0 0-14.998c-15.186 0-27.541 12.354-27.541 27.54v16.033c0 15.186 12.355 27.54 27.541 27.54s27.54-12.354 27.54-27.54v-12.025a7.5 7.5 0 0 0-7.5-7.5z"></path><path d="M448.305 87.097a7.5 7.5 0 0 0-11.259 9.909c40.418 45.922 61.672 104.986 59.847 166.314-1.833 61.598-26.854 119.533-70.453 163.132-85.706 85.706-222.422 94.331-318.013 20.065a7.498 7.498 0 0 0-10.523 1.321 7.499 7.499 0 0 0 1.321 10.523c46.231 35.917 101.515 53.584 156.619 53.584 65.933 0 131.609-25.296 181.201-74.89 46.314-46.313 72.893-107.857 74.841-173.291 1.937-65.139-20.642-127.881-63.581-176.667zm-251.076 51.46c-2.912-2.932-7.656-2.946-10.597-.043-.231.228-23.724 22.987-76.938 38.191a7.5 7.5 0 0 0 2.056 14.711c.682 0 1.376-.094 2.064-.291 57.324-16.378 82.368-40.951 83.406-41.989 2.923-2.922 2.922-7.649.009-10.579z"></path><path d="M345.754 372.586c-12.421-40.618-48.494-67.908-89.763-67.908s-77.341 27.29-89.762 67.907c-1.232 4.029-.23 8.443 2.615 11.521 2.838 3.068 6.958 4.362 11.023 3.46 24.261-5.387 49.873-8.117 76.124-8.117 26.252 0 51.865 2.731 76.125 8.117a11.78 11.78 0 0 0 2.552.282c3.184 0 6.227-1.316 8.469-3.741 2.846-3.077 3.849-7.492 2.617-11.521zm-89.763-8.137c-25.28 0-50.016 2.438-73.619 7.248 11.855-31.338 40.794-52.022 73.619-52.022 32.824 0 61.765 20.683 73.619 52.022-23.603-4.81-48.339-7.248-73.619-7.248zM424.956 63.749C376.171 20.81 313.427-1.764 248.288.169 182.853 2.117 121.31 28.696 74.997 75.01c-38.148 38.148-62.9 86.36-71.581 139.425-8.478 51.823-1.102 104.164 21.327 151.39-.419 3.544-.65 7.047-.65 10.484 0 30.656 24.941 55.597 55.597 55.597s55.596-24.942 55.596-55.598c0-20.43-7.817-45.506-23.236-74.533a7.5 7.5 0 1 0-13.246 7.036c14.055 26.458 21.483 49.798 21.483 67.495 0 22.386-18.212 40.599-40.599 40.599S39.09 398.693 39.09 376.307c0-35.08 28.021-80.538 40.607-99.184.79 1.167 1.639 2.439 2.537 3.805a7.499 7.499 0 0 0 10.386 2.147 7.498 7.498 0 0 0 2.147-10.386c-5.288-8.043-8.926-12.907-9.079-13.11a7.499 7.499 0 0 0-11.999 0c-1.564 2.085-30.275 40.716-43.283 81.241-14.846-39.411-19.076-81.866-12.189-123.964 8.17-49.946 31.472-95.328 67.385-131.241 43.599-43.599 101.534-68.62 163.132-70.453 61.33-1.829 120.392 19.428 166.314 59.847a7.497 7.497 0 0 0 10.584-.675 7.502 7.502 0 0 0-.676-10.585z"></path><path d="M402.405 176.704c-53.214-15.204-76.707-37.963-76.921-38.174a7.498 7.498 0 0 0-10.605 0 7.498 7.498 0 0 0 0 10.605c1.038 1.038 26.082 25.612 83.407 41.989.687.197 1.38.291 2.063.291a7.5 7.5 0 0 0 2.056-14.711z"></path>
		</symbol>
	
		<symbol id="icon-eye" viewBox="0 0 512.001 512.001">
			<path d="M503.698 231.895c-28.735-36.843-65.956-67.318-107.637-88.128-42.548-21.243-88.321-32.265-136.104-32.843-1.316-.036-6.6-.036-7.916 0-47.782.579-93.556 11.6-136.104 32.843-41.681 20.81-78.9 51.284-107.636 88.128a39.145 39.145 0 0 0 0 48.211c28.735 36.843 65.955 67.318 107.636 88.128 42.548 21.243 88.321 32.265 136.104 32.843 1.316.036 6.6.036 7.916 0 47.782-.579 93.556-11.6 136.104-32.843 41.681-20.81 78.901-51.284 107.637-88.128a39.145 39.145 0 0 0 0-48.211zM125.242 349.599c-38.92-19.432-73.678-47.892-100.517-82.303a18.344 18.344 0 0 1 0-22.591c26.838-34.411 61.596-62.871 100.517-82.303a293.777 293.777 0 0 1 33.839-14.33c-29.578 26.588-48.213 65.12-48.213 107.928 0 42.81 18.636 81.345 48.217 107.932a293.754 293.754 0 0 1-33.843-14.333zM256 380.303c-68.542 0-124.304-55.762-124.304-124.304S187.458 131.696 256 131.696 380.304 187.458 380.304 256 324.542 380.303 256 380.303zm231.275-113.008c-26.838 34.411-61.596 62.871-100.517 82.303a293.497 293.497 0 0 1-33.805 14.299c29.558-26.587 48.179-65.107 48.179-107.898 0-42.814-18.64-81.351-48.223-107.939a293.653 293.653 0 0 1 33.85 14.34c38.92 19.432 73.678 47.892 100.517 82.303a18.346 18.346 0 0 1-.001 22.592z"></path><path d="M256 202.804c-29.332 0-53.195 23.863-53.195 53.195s23.863 53.195 53.195 53.195 53.195-23.863 53.195-53.195c.001-29.332-23.862-53.195-53.195-53.195zm0 85.563c-17.847 0-32.368-14.519-32.368-32.368 0-17.848 14.519-32.367 32.368-32.367 17.847 0 32.367 14.519 32.367 32.367.001 17.849-14.52 32.368-32.367 32.368z"></path>
		</symbol>
	
		<symbol id="icon-fiat" viewBox="0 0 512 512">
			<circle cx="256" cy="256" r="256" fill="#ccc"></circle><path d="M256 0c-4.319 0-8.611.111-12.877.322C378.524 7.03 486.245 118.934 486.245 256S378.524 504.97 243.123 511.678c4.266.211 8.558.322 12.877.322 141.385 0 256-114.615 256-256S397.385 0 256 0z" fill="#a6a6a6"></path><path d="M419.208 384.865c-29.099 59.506-103.439 75.4-163.21 76.141-59.762-.741-134.102-16.635-163.21-76.141-29.099-59.515-73.315-240.448 1.518-293.837 74.842-53.379 248.551-53.379 323.384 0 74.843 53.389 30.617 234.322 1.518 293.837z" fill="#e3e3e3"></path><path d="M379.471 397.029c-11.687 26.018-70.645 36.845-123.475 37.604-52.821-.759-111.779-11.587-123.466-37.604-11.687-26.017-77.933-252.447-18.948-290.855s225.853-38.409 284.838 0-7.262 264.838-18.949 290.855z" fill="#e82934"></path><path d="M131.669 162.937l5.105 185.661 22.745.465v-84.942h19.03v-21.35h-19.03v-56.625h25.529v-23.209zm69.479 0h24.937l-.337 186.126h-23.672zm44.696.343h53.526s13.27 28.487 17.846 68.459c5.68 49.642 2.613 117.077 2.613 117.077h-19.99l-.101-85.573H270.24l-.276 85.821H247.75l-1.906-185.784zm52.8 80.111s-2.37-22.036-6.919-38.599c-3.336-12.153-9.234-20.216-9.234-20.216h-13.342v58.086l29.495.729zm26.364-80.111h63.362v19.487h-18.936l-3.278 166.049h-24.441l3.321-165.684h-20.328z" fill="#e3e3e3"></path>
		</symbol>
	
		<symbol id="icon-ford" viewBox="0 0 512 512">
			<path d="M255.911 379.5C397.256 379.5 512 324.186 512 255.872 512 187.815 397.256 132.5 255.911 132.5 114.389 132.5 0 187.815 0 255.872 0 324.186 114.389 379.5 255.911 379.5z" fill="#00539e"></path><path d="M255.911 132.5c-4.321 0-8.616.053-12.885.155 135.375 3.236 243.219 57.237 243.219 123.217 0 66.228-107.845 120.236-243.219 123.472 4.268.102 8.563.155 12.885.155C397.256 379.5 512 324.186 512 255.872 512 187.815 397.256 132.5 255.911 132.5z" fill="#004380"></path><g fill="#fff"><path d="M213.374 313.406c-9.897-.037-18.01-4.915-21.764-12.618-1.656 1.21-3.679 2.501-6.029 3.842l-.092.053-.415.213c-1.426.745-2.719 1.362-4.113 1.357a4.127 4.127 0 0 1-2.303-.691l-.207-.139-.186-.166c-2.101-1.88-3.548-4.408-3.868-6.763l-.831-6.105 4.286 1.683c.52-.389 1.201-.919 1.904-1.467l1.115-.867c5.643-4.24 7.037-7.488 7.05-7.52l.064-.175.055-.096c1.314-2.696 3.352-6.555 5.15-9.96l1.487-2.821c7.859-15.471 19.471-23.904 33.559-24.346l.127-.002c3.757.014 5.562 1.733 6.587 3.249.194.191 4.227-2.666 6.854-2.656.966.004 2.977.011 4.754 1.802 3.483 3.505 5.5 8.9 6.268 13.835 6.57-7.657 13.498-14.783 19.813-16.892 2.128-.993 4.094-.995 5.692-.989.212-.005.421-.006.627-.006 5.092.019 9.01 1.587 11.645 4.662a12.649 12.649 0 0 1 2.013 3.243c4.699-4.293 9.54-6.91 15.586-6.888.431.002.867.016 1.309.044 9.061.484 13.178 7.122 13.156 13.083l-.003.139c-.278 6.612-5.281 13.576-13.174 13.785l-.109.001c-4.914-.018-8.736-1.89-11.259-5.465-.403.771-.733 1.858-.983 3.439l-.016.093c19.784 11.661 26.055-4.829 28.284-7.142 8.65-8.978 16.819-17.458 32.244-17.401l.428.003c8.341.171 12.81 4.515 15.402 8.561l20.822-34.821a1.756 1.756 0 0 1 1.514-.855l18.601.069c1.344.005 2.187 1.452 1.522 2.62-7.639 13.421-42.162 74.087-42.441 74.848 3.611-.865 8.473-6.472 19.671-18.14 0 0 3.618-4.518 8.022-3.062 2.613.864 5.81 2.248 5.798 5.443-.01 2.655-12.916 31.988-39.482 31.985l-.095.001c-6.018-.022-9.972-1.982-12.129-6.092-5.438 2.798-13.97 5.454-22.414 5.423-8.382-.2-14.294-4.178-17.644-11.824-1.315-2.825-1.997-6.199-2.001-9.645-2.953.721-5.913.906-9.144.894a99.071 99.071 0 0 1-2.704-.051c-6.808-.187-11.768-2.796-14.998-7.93l-1.098 1.988c-4.025 7.284-11.901 21.819-13.95 25.603-.308.569-.9.916-1.547.913l-19.838-.073c-1.352-.005-2.192-1.472-1.51-2.64l20.146-34.545c1.881-7.405-10.122 2.742-19.56 13.966-7.281 8.649-17.718 24.079-35.648 24.013zm1.503-22.708c13.736 0 18.758-17.712 16.497-19.615-5.115-4.306-17.511-.818-20.087 12.387-.739 3.793.856 6.572 3.59 7.228zm125.467-15.289c-3.021 2.83-5.709 9.218-4.393 12.779.487 1.317 9.239 5.345 17.188-4.73 2.481-3.144 4.39-7.813 3.318-11.156-.502-1.568-6.662-5.745-16.113 3.107zm-201.442-34.985c-5.142 0-10.009-2.072-13.704-5.833-4.124-4.199-6.52-10.261-6.408-16.217.105-10.35 5.715-19.736 15.796-26.398 11.353-7.503 32.221-20.261 77.785-13.936 14.265 1.98 46.732 14.457 96.277 9.832 1.601-.149 2.253-.507 4.478-.507 3.218 0 7.055 1.104 7.055 6.361 0 9.265-23.356 19.578-39.185 19.578-18.817 0-37.873-6.361-51.787-11.007-5.269-1.759-9.818-3.277-13.094-4.015-12.597-2.942-24.646-5.577-33.914-5.577-23.942 0-34.607 7.465-38.833 11.915-3.356 3.533-5.017 7.536-4.804 11.574.178 2.76 1.975 4.368 4.925 4.368.564 0 1.164-.059 1.786-.177 5.928-1.036 14.404-6.919 16.243-11.249.886-2.064 2.891-3.423 5.112-3.388 4.979.078 5.229 4.795 4.872 6.493-1.174 7.961-12.699 28.183-32.6 28.183z"></path><path d="M128.315 311.147c-19.589 0-33.533-13.378-33.908-32.534-.108-6.648 2.564-13.824 7.331-19.702 5.285-6.517 12.654-11.093 21.31-13.231l.452-.112h.465c4.515 0 6.536 2.825 6.536 5.624 0 1.139-.451 3.987-4.624 5.839l-.111.049-.114.042c-3.257 1.205-10.922 9.389-10.922 16.707 0 4.981 3.097 10.846 8.28 12.04l.147.037c22.566 4.699 34.425-13.239 55.077-40.888-4.82.896-9.402 2.227-10.6 3.604 0 0-3.087 1.964-4.42 1.964-2.509 0-4.568-1.745-5.245-4.445l-.115-.456v-.47c0-1.794 1.342-3.965 1.86-4.65l.092-.123.102-.115c5.471-6.151 17.779-8.346 28.005-9.555 14.773-22.435 19.012-24.291 22.653-24.291.979 0 1.746.213 2.368.422l.388.129c2.174.726 10.033 5.139-.638 19.295 1.933-.267 6.799-.602 7.957-1.958 2.629-14.376 19.079-18.287 23.703-3.243 1.923 6.255-2.531 10.159-6.298 12.873-8.875 6.394-24.339 8.442-32.027 10.098-35.11 56.61-53.355 67.05-77.704 67.05z"></path></g><path d="M255.918 372.476c-64.141 0-124.516-11.455-170.002-32.256C38.573 318.57 12.5 289.061 12.5 257.126c0-31.839 26.074-61.28 73.419-82.899C131.43 153.445 191.803 142 255.918 142c64.063 0 124.442 11.444 170.016 32.225 47.439 21.632 73.566 51.073 73.566 82.901 0 31.924-26.125 61.435-73.563 83.096-45.549 20.799-105.93 32.254-170.019 32.254zm0-215.476c-62.011 0-120.171 10.964-163.768 30.871-41.086 18.762-64.65 44.004-64.65 69.255 0 25.722 22.961 50.388 64.653 69.452 43.571 19.925 101.73 30.897 163.765 30.897 61.985 0 120.153-10.974 163.789-30.898 41.177-18.803 64.793-44.117 64.793-69.451 0-25.236-23.615-50.479-64.79-69.253C376.049 167.964 317.879 157 255.918 157z" fill="#fff"></path>
		</symbol>
	
		<symbol id="icon-honda" viewBox="0 0 512 512">
			<path d="M417.463 66.973l-30.604 378.013h-55.542s-.696-36.607-17.687-64.316c-2.782-4.618-6.361-8.335-10.732-10.813-12.321-7.208-32.293-9.518-46.899-9.518-14.606 0-34.578 2.309-46.899 9.518-4.371 2.478-7.949 6.196-10.732 10.813-16.991 27.709-17.687 64.316-17.687 64.316H125.14L94.536 66.973h40.541c17.884 103.739 31.696 158.594 55.741 203.649 5.167 9.687 13.813 16.445 23.649 18.248 13.412 2.365 26.346 2.732 41.533 2.732 15.186 0 28.12-.367 41.533-2.732 9.837-1.803 18.482-8.561 23.649-18.248 24.045-45.055 37.856-99.91 55.741-203.649h40.54z" fill="#ccc"></path><path d="M231.643 360.338c-14.606 0-34.578 2.309-46.899 9.518-4.371 2.478-7.949 6.196-10.732 10.813-16.991 27.709-17.687 64.316-17.687 64.316h24.356s.696-36.607 17.687-64.316c2.782-4.618 6.361-8.335 10.732-10.813 9.136-5.345 22.478-7.993 34.721-9.006a149.07 149.07 0 0 0-12.178-.512z" fill="#8c8c8c"></path><path d="M190.111 288.87c13.412 2.365 26.346 2.732 41.533 2.732 4.217 0 8.249-.035 12.178-.127-10.217-.238-19.667-.897-29.355-2.605-9.837-1.803-18.482-8.561-23.649-18.248-24.045-45.055-37.856-99.91-55.741-203.649H110.72c17.884 103.739 31.696 158.594 55.741 203.649 5.167 9.687 13.813 16.445 23.65 18.248z" fill="#a6a6a6"></path><path fill="#8c8c8c" d="M393.107 66.973l-30.604 378.013h24.355l30.605-378.013z"></path><path d="M379.153 30H134.841C.264 30-1.589 72.141.336 123.414l10.332 274.818C12.418 444.77 47.644 482 89.365 482h333.269c41.72 0 76.947-37.23 78.697-83.768l10.332-274.818C513.587 72.141 511.735 30 379.153 30zm92.796 91.627l-10.332 274.818c-.864 23.187-18.359 42.058-38.983 42.058H89.365c-20.624 0-38.119-18.872-38.983-42.058L40.049 121.627c-.525-13.9 3.664-26.659 11.773-35.915 4.888-5.568 13.337-12.205 25.851-12.205h356.651c12.514 0 20.963 6.637 25.851 12.205 8.11 9.256 12.299 22.015 11.774 35.915z" fill="#ccc"></path><path d="M77.674 73.507H54.347c-12.514 0-20.963 6.637-25.851 12.205-8.109 9.256-12.298 22.015-11.773 35.915l10.332 274.818c.864 23.187 18.359 42.058 38.983 42.058h23.327c-20.624 0-38.119-18.872-38.983-42.058L40.049 121.627c-.525-13.9 3.664-26.659 11.773-35.915 4.889-5.568 13.338-12.205 25.852-12.205z" fill="#a6a6a6"></path><path d="M379.153 30h-23.327c132.581 0 134.434 42.141 132.509 93.414l-10.332 274.818C476.254 444.77 441.027 482 399.307 482h23.327c41.72 0 76.947-37.23 78.697-83.768l10.332-274.818C513.587 72.141 511.735 30 379.153 30z" fill="#8c8c8c"></path>
		</symbol>
	
		<symbol id="icon-hyundai" viewBox="0 0 512 512">
			<path d="M256 119C114.618 119 0 180.341 0 256.005S114.618 393 256 393s256-61.33 256-136.995S397.382 119 256 119zm166.426 206.66c-34.789 18.626-79.087 30.614-127.475 34.802a430.674 430.674 0 0 1-22.994 1.379c-5.285.196-10.601.288-15.957.288-51.571 0-100.309-8.572-140.352-24.439a256.192 256.192 0 0 1-18.162-7.985 257.818 257.818 0 0 1-7.912-4.044c-37.282-19.953-58.669-45.339-58.669-69.655s21.387-49.713 58.669-69.665c33.203-17.761 75.059-29.502 120.871-34.174a426.447 426.447 0 0 1 22.664-1.719 454.587 454.587 0 0 1 22.891-.576c50.221 0 97.754 8.14 137.189 23.205a264.111 264.111 0 0 1 17.647 7.471 238.857 238.857 0 0 1 11.59 5.793c37.282 19.953 58.669 45.349 58.669 69.665 0 24.315-21.387 49.701-58.669 69.654z" fill="#ccc"></path><path d="M256 119c-5.19 0-10.339.093-15.453.256 134.185 4.277 240.547 63.862 240.547 136.75S374.732 388.468 240.547 392.745c5.114.162 10.263.255 15.453.255 141.382 0 256-61.33 256-136.995S397.382 119 256 119z" fill="#8c8c8c"></path><path d="M410.836 180.546c-32.348 55.938-91.027 143.293-115.885 179.916a430.674 430.674 0 0 1-22.994 1.379c11.033-31.509 28.268-99.538-28.618-99.538-55.31 0-105.717 50.052-127.691 75.387a256.192 256.192 0 0 1-18.162-7.985c44.669-85.049 91.81-149.95 112.959-177.539a426.447 426.447 0 0 1 22.664-1.719c-12.754 32.394-23.9 83.516 32.76 83.516 56.413 0 103.173-37.127 127.32-60.888a263.89 263.89 0 0 1 17.647 7.471z" fill="#ccc"></path><path d="M393.189 173.076a273.269 273.269 0 0 1-14.891 13.598c-28.332 48.178-73.292 115.939-100.565 156.419-1.841 6.963-3.898 13.386-5.776 18.748a429.63 429.63 0 0 0 22.994-1.379c24.858-36.623 83.537-123.978 115.885-179.916a263.363 263.363 0 0 0-17.647-7.47z" fill="#8c8c8c"></path>
		</symbol>
	
		<symbol id="icon-jeep" viewBox="0 0 512 512">
			<path d="M124.303 153h-45.3a4 4 0 0 0-4 4v116.39s-.996 13.356-13.017 13.356-12.88-13.356-12.88-13.356v-26.701a4 4 0 0 0-4-4H4a4 4 0 0 0-4 4v33.733s2.575 46.572 63.225 46.572c62.972 0 64.877-57.348 64.877-57.348l.201-112.639a4 4 0 0 0-4-4.007zm76.939 69.401c9.678 0 16.944 7.474 18.338 17.059.26 1.787-1.174 3.375-2.979 3.375h-35.283a.995.995 0 0 1-.998-1.075c.349-4.211 2.86-19.359 20.922-19.359zm55.713 45.157c1.687 0 3.029-1.391 3-3.078-.807-46.357-20.079-72.044-62.309-72.044-34.764 0-57.541 33.01-57.541 68.923 0 41.486 26.372 65.015 61.138 65.015 23.831 0 45.516-11.099 54.879-34.873.781-1.983-.649-4.137-2.781-4.137h-33.184c-.917 0-1.782.421-2.347 1.143-3.795 4.851-10.441 7.525-16.568 7.525-12.133 0-19.191-12.048-21.175-25.067-.274-1.798 1.155-3.408 2.974-3.408l73.914.001zm71.187-45.157c9.678 0 16.944 7.474 18.338 17.059.26 1.787-1.174 3.375-2.979 3.375h-35.283a.995.995 0 0 1-.998-1.075c.349-4.211 2.86-19.359 20.922-19.359zm55.713 45.157c1.687 0 3.029-1.391 3-3.078-.807-46.357-20.079-72.044-62.309-72.044-34.764 0-57.541 33.01-57.541 68.923 0 41.486 26.372 65.015 61.138 65.015 23.831 0 45.516-11.099 54.879-34.873.781-1.983-.649-4.137-2.781-4.137h-33.184c-.917 0-1.782.421-2.347 1.143-3.795 4.851-10.441 7.525-16.568 7.525-12.133 0-19.191-12.048-21.175-25.067-.274-1.798 1.155-3.408 2.974-3.408l73.914.001zm81.035-75.119c-25.641 0-33.471 16.717-33.471 16.717v-10.627a3 3 0 0 0-3-3h-35.527a3 3 0 0 0-3 3V356a3 3 0 0 0 3 3h36.763a3 3 0 0 0 3-3v-50.251c9.519 18.004 31.616 16.717 31.616 16.717S512 321.704 512 258.07c0-63.633-38.374-65.631-47.11-65.631zm-14.567 93.812c-14.556 0-19.573-12.669-19.573-28.294 0-15.636 5.8-28.304 19.573-28.304 13.774 0 19.573 12.669 19.573 28.304 0 15.625-5.016 28.294-19.573 28.294z" fill="#202738"></path><path d="M102.555 153l-.208 116.645s-1.656 49.521-52.433 56.521c4.094.535 8.52.827 13.311.827 62.972 0 64.877-57.348 64.877-57.348l.201-112.638a4 4 0 0 0-4-4.007h-21.748zm85.808 172.227a71.435 71.435 0 0 0 12.88 1.147c23.831 0 45.516-11.099 54.879-34.873.781-1.983-.649-4.137-2.781-4.137H231.83c-6.929 21.987-23.671 34.253-43.467 37.863zm45.864-57.669h22.728c1.687 0 3.029-1.391 3-3.078-.807-46.357-20.079-72.044-62.309-72.044-3.841 0-7.526.424-11.06 1.19 32.839 5.666 47.641 31.514 47.641 73.932zm126.9 0h22.728c1.687 0 3.029-1.391 3-3.078-.807-46.357-20.079-72.044-62.31-72.044-3.841 0-7.526.424-11.06 1.19 32.841 5.666 47.642 31.514 47.642 73.932zm-45.864 57.669a71.435 71.435 0 0 0 12.88 1.147c23.831 0 45.516-11.099 54.879-34.873.781-1.983-.649-4.137-2.781-4.137H358.73c-6.929 21.987-23.671 34.253-43.467 37.863zM464.89 192.439c-5.071 0-9.435.66-13.19 1.709 14.42 4.082 34.546 17.836 34.546 63.922 0 43.323-22.119 57.5-36.242 62.139 7.592 2.638 14.268 2.256 14.268 2.256S512 321.704 512 258.07c0-63.633-38.374-65.631-47.11-65.631z" fill="#191e2b"></path>
		</symbol>
	
		<symbol id="icon-kia" viewBox="0 0 512 512">
			<g fill="#e82934"><path d="M256.002 122C114.61 122 0 181.992 0 255.997S114.61 390 256.002 390C397.39 390 512 330.002 512 255.997S397.39 122 256.002 122zm1.075 237.333c-128.174 0-232.071-45.97-232.071-102.676 0-56.703 103.897-102.678 232.071-102.678 128.181 0 232.082 45.975 232.082 102.678 0 56.705-103.901 102.676-232.082 102.676z"></path><path d="M337.513 208.882c0-1.49-2.533-2.733-2.533-2.733l-2.412.015a1.03 1.03 0 0 1-1.037-1.027l-.035-12.728a1.03 1.03 0 0 1 1.029-1.033l46.433-.039c1.392 0 2.723.305 3.185 1.806 0 0 40.403 124.331 40.403 124.557 0 1.319-.989 2.374-2.229 2.374l.054.016-29.097.023c-1.392 0-2.892-1.227-3.349-2.733l-24.922-79.918c-.174-.689-.576-1.273-1.277-1.273-.707 0-1.114.523-1.272 1.273l-24.911 79.918c-.468 1.506-1.968 2.733-3.365 2.733l-29.004-.029c-1.245 0-2.261-1.066-2.261-2.384 0-.226 36.6-108.445 36.6-108.818zm-96.19-.6v-.007c0-1.493-1.201-2.66-2.609-2.66l-3.851-.003a.53.53 0 0 1-.519-.545v-13.193c0-.283.231-.536.519-.536h38.495c1.397 0 2.544 1.211 2.544 2.707v123.347c0 1.494-1.147 2.698-2.544 2.698h-29.505c-1.402 0-2.544-1.204-2.544-2.698l.014-109.11zm-24.981 111.802l-33.967-.01c-1.412 0-3.385-1.217-4.41-2.718 0 0-34.527-49.785-34.918-50.132-.245-.176-.628-.29-.955-.29-.867 0-1.395.698-1.395 1.643v.596l.019 48.218c0 1.494-1.137 2.698-2.541 2.698h-28.613c-1.401 0-2.541-1.204-2.541-2.698l.026-108.752v-.014c0-1.495-1.119-2.696-2.522-2.696h.071l-4.006.03c-.28 0-.511-.252-.511-.543v-13.544c0-.3.231-.549.511-.549l37.586.014c1.404 0 2.541 1.211 2.541 2.707v40.35-.059.655c0 .94.527 1.646 1.398 1.646.329 0 .708-.117.973-.296.373-.338 5.679-7.902 5.679-7.902l23.422-34.367c1.036-1.507 3.009-2.713 4.418-2.713h32.524c1.231 0 2.187 1.066 2.187 2.38 0 .485-.11.944-.341 1.33l-35.97 55.037c-.394.555-.598 1.021-.598 1.67 0 .651.151 1.023.552 1.578l43.047 62.765c.395.445.539.932.539 1.582-.002 1.318-.979 2.384-2.205 2.384z"></path></g><path d="M256.002 122c-4.362 0-8.698.058-13.006.171 118.324 3.099 215.468 48.248 238.032 107.478 5.291 8.606 8.131 17.66 8.131 27.007 0 10.175-3.361 20-9.592 29.281-25.052 57.457-120.649 100.856-236.571 103.892 4.308.113 8.644.171 13.006.171C397.39 390 512 330.002 512 255.997S397.39 122 256.002 122z" fill="#c7232c"></path>
		</symbol>
	
		<symbol id="icon-left-arrow-chevron" viewBox="0 0 370.814 370.814">
			<path d="M292.92 24.848L268.781 0 77.895 185.401l190.886 185.413 24.139-24.853-165.282-160.56z"></path>
		</symbol>
	
		<symbol id="icon-lexus" viewBox="0 0 512 512">
			<path d="M470.941 294.845c-6.765 21.616-19.46 41.655-36.791 59.004H160.116c-60.237 0-40.498-45.273-40.498-45.273 34.01-72.177 114.174-177.753 142.624-214.306 32.064.835 62.461 6.679 89.708 16.606-63.667 71.528-119.642 142.407-142.532 171.909-4.541 5.844-.278 14.194 7.043 14.194l254.48-2.134z" fill="#ccc"></path><path d="M283.176 99.464c19.44 3.739 27.553 27.122 14.614 42.093-52.174 60.367-96.031 115.965-115.631 141.227-4.541 5.844-.278 14.194 7.043 14.194l21.11-.177c.932-.008 1.336-1.177.607-1.757-3.526-2.805-4.697-8.147-1.501-12.26 22.772-29.351 78.291-99.655 141.553-170.808a.997.997 0 0 0-.402-1.6c-26.747-9.572-56.482-15.226-87.819-16.094a.993.993 0 0 0-.815.382l-.014.018a.987.987 0 0 0 .665 1.587 290.353 290.353 0 0 1 20.59 3.195z" fill="#a6a6a6"></path><path d="M443.39 295.752c-6.611 20.577-18.599 39.706-34.846 56.419-.611.629-.177 1.678.701 1.678h24.488c.267 0 .524-.107.712-.296 16.831-16.929 29.255-36.405 36.078-57.398a.996.996 0 0 0-.958-1.298l-25.247.212a.98.98 0 0 0-.928.683z" fill="#8c8c8c"></path><path d="M256 81C114.618 81 0 159.349 0 256s114.618 175 256 175 256-78.349 256-175S397.382 81 256 81zm205.995 210.268c-6.418 20.527-18.481 39.56-34.933 56.031C388.605 386.056 326.31 411.256 256 411.256c-116.771 0-211.537-69.506-211.537-155.225 0-85.791 94.766-155.297 211.537-155.297 2.637 0 5.192 0 7.829.082 30.452.793 59.307 6.341 85.186 15.771 70.217 25.2 118.522 78.143 118.522 139.444 0 12.157-1.936 23.965-5.542 35.237z" fill="#ccc"></path><path d="M243.505 101.011a286.307 286.307 0 0 0-5.43-.195c-2.637-.082-5.192-.082-7.829-.082-116.771 0-211.537 69.506-211.537 155.297 0 85.719 94.766 155.225 211.537 155.225 4.364 0 8.696-.098 12.995-.29-110.835-4.845-198.778-72.362-198.778-154.935 0-82.709 88.082-150.271 199.042-155.02z" fill="#a6a6a6"></path><path d="M256 81c-4.319 0-8.611.076-12.877.22C378.522 85.806 486.245 162.301 486.245 256S378.522 426.194 243.123 430.78c4.266.145 8.559.22 12.877.22 141.382 0 256-78.349 256-175S397.382 81 256 81z" fill="#8c8c8c"></path>
		</symbol>
	
		<symbol id="icon-line-chart" viewBox="0 0 512.001 512.001">
			<path d="M457.637 134.681c-29.976 0-54.363 24.387-54.363 54.363a54.022 54.022 0 0 0 8.831 29.647l-58.733 58.733a54.028 54.028 0 0 0-29.648-8.831 54.049 54.049 0 0 0-30.576 9.441l-59.338-59.347a54.023 54.023 0 0 0 8.828-29.644c0-29.976-24.387-54.363-54.363-54.363s-54.363 24.387-54.363 54.363c0 10.931 3.254 21.108 8.827 29.641L84.004 277.42a54.02 54.02 0 0 0-29.641-8.827C24.387 268.593 0 292.981 0 322.957s24.387 54.363 54.363 54.363 54.363-24.387 54.363-54.363a54.028 54.028 0 0 0-8.831-29.648l58.733-58.733a54.028 54.028 0 0 0 29.648 8.831 54.02 54.02 0 0 0 29.646-8.831l59.666 59.674a54.03 54.03 0 0 0-8.226 28.706c0 29.976 24.387 54.363 54.363 54.363s54.363-24.387 54.363-54.363a54.026 54.026 0 0 0-8.827-29.641l58.736-58.736a54.025 54.025 0 0 0 29.641 8.827c29.976 0 54.363-24.387 54.363-54.363 0-29.977-24.388-54.362-54.364-54.362zM54.363 354.849c-17.586 0-31.893-14.307-31.893-31.892 0-17.586 14.307-31.893 31.893-31.893 17.585 0 31.893 14.307 31.893 31.893 0 17.585-14.307 31.892-31.893 31.892zm133.913-133.913c-17.585 0-31.893-14.307-31.893-31.893 0-17.585 14.307-31.893 31.893-31.893s31.893 14.307 31.893 31.893-14.307 31.893-31.893 31.893zm135.448 133.913c-17.585 0-31.893-14.307-31.893-31.893s14.307-31.893 31.893-31.893c17.585 0 31.893 14.307 31.893 31.893-.001 17.586-14.308 31.893-31.893 31.893zm133.913-133.913c-17.585 0-31.893-14.307-31.893-31.893 0-17.585 14.307-31.893 31.893-31.893 17.585 0 31.893 14.307 31.893 31.893s-14.308 31.893-31.893 31.893z"></path><path d="M176.774 272.717c-4.388-4.387-11.501-4.387-15.889 0l-22.854 22.854c-4.387 4.387-4.387 11.501.001 15.889 2.194 2.194 5.069 3.291 7.944 3.291s5.751-1.098 7.944-3.291l22.854-22.854c4.389-4.387 4.389-11.502 0-15.889zm197.188-71.778c-4.388-4.387-11.5-4.387-15.89.001l-22.854 22.854c-4.387 4.387-4.387 11.501 0 15.889a11.206 11.206 0 0 0 7.945 3.29c2.876 0 5.75-1.098 7.944-3.291l22.854-22.854c4.388-4.388 4.388-11.502.001-15.889z"></path>
		</symbol>
	
		<symbol id="icon-list" viewBox="68 0 512 512">
			<path d="M7.5 235.71a7.5 7.5 0 0 1-7.5-7.5V27.5C0 12.336 12.336 0 27.5 0h321.719c15.164 0 27.5 12.336 27.5 27.5v35.719c0 4.144-3.356 7.5-7.5 7.5a7.5 7.5 0 0 1-7.5-7.5V27.5c0-6.895-5.606-12.5-12.5-12.5H27.5C20.605 15 15 20.605 15 27.5v200.71c0 4.142-3.36 7.5-7.5 7.5zM349.219 512H151.16c-4.144 0-7.5-3.355-7.5-7.5s3.356-7.5 7.5-7.5h198.06c6.894 0 12.5-5.605 12.5-12.5V97.738a7.5 7.5 0 1 1 15 0V484.5c0 15.164-12.336 27.5-27.5 27.5zm-232.582 0H27.5C12.336 512 0 499.664 0 484.5V262.73c0-4.14 3.355-7.5 7.5-7.5s7.5 3.36 7.5 7.5V484.5c0 6.895 5.605 12.5 12.5 12.5h89.14a7.5 7.5 0 1 1-.003 15zm0 0"></path><path d="M86.871 134.434c-20.7 0-37.543-16.84-37.543-37.543 0-20.7 16.844-37.54 37.543-37.54 20.7 0 37.543 16.84 37.543 37.54 0 20.703-16.844 37.543-37.543 37.543zm0-60.082c-12.43 0-22.543 10.109-22.543 22.539s10.113 22.543 22.543 22.543 22.543-10.114 22.543-22.543-10.113-22.54-22.543-22.54zm233.019 60.082H137.376a7.5 7.5 0 0 1-7.5-7.5 7.5 7.5 0 0 1 7.5-7.5h182.516c4.144 0 7.5 3.355 7.5 7.5 0 4.144-3.356 7.5-7.5 7.5zM86.871 240.508c-20.7 0-37.543-16.844-37.543-37.543 0-20.703 16.844-37.543 37.543-37.543 20.7 0 37.543 16.84 37.543 37.543 0 20.7-16.844 37.543-37.543 37.543zm0-60.086c-12.43 0-22.543 10.113-22.543 22.543s10.113 22.543 22.543 22.543 22.543-10.113 22.543-22.543-10.113-22.543-22.543-22.543zm233.019 60.086H137.376a7.5 7.5 0 1 1 0-15h182.516c4.144 0 7.5 3.355 7.5 7.5a7.5 7.5 0 0 1-7.5 7.5zM86.871 346.578c-20.7 0-37.543-16.84-37.543-37.543 0-20.7 16.844-37.543 37.543-37.543 20.7 0 37.543 16.844 37.543 37.543 0 20.703-16.844 37.543-37.543 37.543zm0-60.086c-12.43 0-22.543 10.113-22.543 22.543s10.113 22.543 22.543 22.543 22.543-10.113 22.543-22.543-10.113-22.543-22.543-22.543zm233.019 60.086H137.376c-4.14 0-7.5-3.355-7.5-7.5s3.36-7.5 7.5-7.5h182.516c4.144 0 7.5 3.356 7.5 7.5s-3.356 7.5-7.5 7.5zM86.871 452.648c-20.7 0-37.543-16.84-37.543-37.539 0-20.703 16.844-37.543 37.543-37.543 20.7 0 37.543 16.84 37.543 37.543 0 20.7-16.844 37.54-37.543 37.54zm0-60.082c-12.43 0-22.543 10.114-22.543 22.543s10.113 22.54 22.543 22.54 22.543-10.11 22.543-22.54-10.113-22.543-22.543-22.543zm233.019 60.082H137.376a7.5 7.5 0 1 1 0-15h182.516a7.5 7.5 0 0 1 7.5 7.5c0 4.145-3.356 7.5-7.5 7.5zm0 0"></path>
		</symbol>
	
		<symbol id="icon-login" viewBox="0 0 512 512">
			<path d="M356.453 243.741l-54.781-38.621c-9.926-6.997-23.644.128-23.644 12.26v23.621H15c-8.284 0-15 6.716-15 15s6.716 15 15 15h263.028v23.62c0 12.212 13.791 19.203 23.643 12.26l54.781-38.62c8.464-5.965 8.457-18.547.001-24.52z"></path><path d="M278.406 22.407c-86.155 0-161.824 46.757-202.333 116.783-4.148 7.171-1.698 16.347 5.473 20.495 7.172 4.148 16.347 1.696 20.495-5.474 35.237-60.91 101.094-101.804 176.365-101.804C390.668 52.407 482 143.738 482 256.001s-91.332 203.594-203.594 203.594c-75.317 0-141.153-40.934-176.366-101.807-4.148-7.171-13.323-9.62-20.495-5.474-7.171 4.148-9.622 13.324-5.473 20.495 40.519 70.047 116.201 116.785 202.334 116.785C407.514 489.595 512 385.119 512 256.001c0-129.109-104.475-233.594-233.594-233.594z"></path>
		</symbol>
	
		<symbol id="icon-mazda" viewBox="0 0 512 512">
			<path d="M325.012 39H186.988C83.713 39 0 122.571 0 225.671v60.657C0 389.429 83.713 473 186.988 473h138.024C428.287 473 512 389.429 512 286.329v-60.657C512 122.571 428.287 39 325.012 39zm132.522 270.18c0 72.957-59.246 132.103-132.327 132.103H186.792c-73.081 0-132.327-59.145-132.327-132.103V202.82c0-72.957 59.246-132.103 132.327-132.103h138.415c73.081 0 132.327 59.145 132.327 132.103v106.36z" fill="#ccc"></path><path d="M186.792 70.717h-25.755c-73.081 0-132.327 59.145-132.327 132.103v106.36c0 72.957 59.246 132.103 132.327 132.103h25.755c-73.081 0-132.327-59.145-132.327-132.103V202.82c.001-72.958 59.246-132.103 132.327-132.103z" fill="#a6a6a6"></path><g fill="#8c8c8c"><path d="M325.012 39h-25.755c103.276 0 186.988 83.571 186.988 186.671v60.657C486.245 389.429 402.533 473 299.257 473h25.755C428.287 473 512 389.429 512 286.329v-60.657C512 122.571 428.287 39 325.012 39z"></path><path d="M469.66 169.128c-.474 16.29-4.11 33.095-14.721 43.822-4.255 4.309-10.178 7.95-17.359 11.179-30.875 13.925-84.938 20.445-128.999 41.97-24.81 12.203-41.559 52.308-48.69 72.695-1.29 3.687-6.49 3.687-7.78 0-7.131-20.387-23.88-60.492-48.69-72.695-54.301-26.523-123.797-30.267-146.358-53.15-10.611-10.727-14.247-27.531-14.721-43.822-.508-16.716 2.205-32.985 4.074-41.991.649-3.126 4.44-4.352 6.805-2.208 9.729 8.816 33.855 28.04 77.355 47.531 55.399 24.967 110.881 54.826 123.491 105.434.504 2.021 3.363 2.021 3.867 0 12.611-50.607 68.092-80.467 123.491-105.434 20.542-9.204 36.757-18.347 49.181-26.369 13.905-8.963 23.057-16.521 28.189-21.174 2.36-2.139 6.142-.907 6.789 2.212 1.869 9.005 4.583 25.279 4.076 42z"></path></g><path d="M469.66 169.128c-.474 16.29-4.11 33.095-14.721 43.822-4.255 4.309-10.178 7.95-17.359 11.179 6.387-29.969 1.267-49.159-.989-59.3-1.205-5.368-3.616-12.434-5.985-18.738 13.896-8.957 23.045-16.511 28.179-21.165 2.363-2.142 6.153-.91 6.8 2.21 1.869 9.006 4.582 25.275 4.075 41.992z" fill="#737474"></path><path d="M469.66 169.128c-9.158 5.8-19.058 11.261-29.453 16.393-29.319 14.501-62.553 26.359-93.963 35.635-59.976 17.726-82.336 61.536-88.389 76.546-.675 1.674-3.034 1.674-3.709 0-6.053-15.01-28.413-58.821-88.389-76.546-42.536-12.557-88.431-29.866-123.416-52.029-.508-16.716 2.205-32.985 4.074-41.991.649-3.126 4.44-4.352 6.805-2.208 9.729 8.816 33.855 28.04 77.355 47.531 55.399 24.967 110.881 54.826 123.491 105.434.504 2.021 3.363 2.021 3.867 0 12.611-50.607 68.092-80.467 123.491-105.434 20.542-9.204 36.757-18.347 49.181-26.369 13.905-8.963 23.057-16.521 28.189-21.174 2.36-2.139 6.142-.907 6.789 2.212 1.87 9.005 4.584 25.279 4.077 42z" fill="#ccc"></path><path d="M469.66 169.128c-9.158 5.8-19.058 11.261-29.453 16.393-.834-9.05-2.544-15.889-3.616-20.692-1.205-5.368-3.616-12.434-5.985-18.738 13.896-8.957 23.045-16.511 28.179-21.165 2.363-2.142 6.153-.91 6.8 2.21 1.869 9.006 4.582 25.275 4.075 41.992z" fill="#a6a6a6"></path>
		</symbol>
	
		<symbol id="icon-mitsubishi" viewBox="0 0 512 512">
			<path d="M340.455 174.743l-80.916 136.366c-1.615 2.721-5.554 2.72-7.168-.002l-80.83-136.366a4.167 4.167 0 0 1-.001-4.247l80.83-136.452c1.613-2.723 5.554-2.724 7.169-.002l80.916 136.452a4.168 4.168 0 0 1 0 4.251zM162.746 479.995l-158.582-.318c-3.16-.006-5.163-3.39-3.648-6.163L76.62 334.177a4.166 4.166 0 0 1 3.662-2.169l158.612.199c3.161.004 5.166 3.388 3.652 6.162l-76.134 139.456a4.169 4.169 0 0 1-3.666 2.17zm345.084-.318l-26.072.052-132.503.271a4.168 4.168 0 0 1-3.667-2.177l-76.132-139.455c-1.521-2.77.49-6.155 3.646-6.166l133.056-.167 25.561-.031c1.521 0 2.927.833 3.656 2.177l76.111 139.33c1.511 2.781-.489 6.156-3.656 6.166z" fill="#e82934"></path><path d="M507.83 479.677l-26.072.052.031-.052c3.167-.01 5.166-3.385 3.656-6.166l-76.111-139.33a4.175 4.175 0 0 0-3.177-2.145l25.561-.031c1.521 0 2.927.833 3.656 2.177l76.111 139.33c1.512 2.78-.488 6.155-3.655 6.165zm-268.937-147.47l-158.612-.199a4.12 4.12 0 0 0-.487.033l132.712.167c3.161.004 5.166 3.388 3.652 6.162l-76.134 139.456a4.164 4.164 0 0 1-3.03 2.118l25.752.052a4.166 4.166 0 0 0 3.665-2.17l76.134-139.456c1.515-2.775-.491-6.159-3.652-6.163zm75.001-161.714a4.163 4.163 0 0 1-.001 4.25L242.68 294.758l9.691 16.35c1.613 2.722 5.553 2.723 7.167.002l80.916-136.366c.777-1.31.778-2.94.001-4.25L259.539 34.041c-1.614-2.722-5.556-2.722-7.169.002l-9.691 16.359 71.215 120.091z" fill="#c7232c"></path>
		</symbol>
	
		<symbol id="icon-nissan" viewBox="0 0 512.001 512.001">
			<path d="M255.995 23.971C127.853 23.971 23.966 127.848 23.966 256c0 128.142 103.887 232.029 232.029 232.029 128.152 0 232.029-103.887 232.029-232.029.001-128.153-103.876-232.029-232.029-232.029zm0 412.496c-99.67 0-180.467-80.797-180.467-180.467S156.326 75.534 255.995 75.534 436.462 156.332 436.462 256c0 99.67-80.797 180.467-180.467 180.467z" fill="#a6a6a6"></path><path d="M243.105 75.996a182.76 182.76 0 0 0-12.891-.463c-99.67 0-180.467 80.798-180.467 180.467 0 99.67 80.797 180.467 180.467 180.467 4.336 0 8.632-.163 12.891-.463C149.453 429.393 75.528 351.334 75.528 256c.001-95.334 73.925-173.394 167.577-180.004zm12.89-52.025c-4.327 0-8.622.128-12.89.362C365.26 31.023 462.245 132.175 462.245 256c0 123.816-96.984 224.978-219.139 231.667 4.268.234 8.564.362 12.89.362 128.152 0 232.029-103.887 232.029-232.029 0-128.153-103.877-232.029-232.03-232.029z" fill="#8c8c8c"></path><path d="M507.996 325.005H4.005A4.006 4.006 0 0 1 0 321V190.992a4.006 4.006 0 0 1 4.005-4.005h503.992a4.005 4.005 0 0 1 4.004 4.005V321a4.006 4.006 0 0 1-4.005 4.005z" fill="#ccc"></path><path d="M507.996 325.005h-21.75V186.988h21.75a4.005 4.005 0 0 1 4.004 4.005v130.009a4.004 4.004 0 0 1-4.004 4.003z" fill="#a6a6a6"></path><path d="M96.265 210.143c-4.143 0-7.5 3.365-7.5 7.516v54.171l-44.032-58.687a7.49 7.49 0 0 0-8.37-2.612 7.514 7.514 0 0 0-5.124 7.129v76.675c0 4.152 3.357 7.516 7.5 7.516s7.5-3.365 7.5-7.516v-54.171l44.032 58.687a7.492 7.492 0 0 0 8.37 2.612 7.515 7.515 0 0 0 5.125-7.129v-76.675c-.001-4.151-3.358-7.516-7.501-7.516zm376.995 0c-4.143 0-7.5 3.365-7.5 7.516v54.171l-44.032-58.687a7.49 7.49 0 0 0-8.37-2.612 7.515 7.515 0 0 0-5.125 7.129v76.675c0 4.152 3.357 7.516 7.5 7.516s7.5-3.365 7.5-7.516v-54.171l44.032 58.687a7.492 7.492 0 0 0 8.37 2.612 7.515 7.515 0 0 0 5.125-7.129v-76.675c0-4.151-3.357-7.516-7.5-7.516zm-343.909 0c-4.143 0-7.5 3.365-7.5 7.516v76.675c0 4.152 3.357 7.516 7.5 7.516s7.5-3.365 7.5-7.516v-76.675c0-4.151-3.357-7.516-7.5-7.516zm52.392 15.033h38.398c4.143 0 7.5-3.365 7.5-7.516s-3.357-7.516-7.5-7.516h-38.398c-14.683 0-26.628 11.971-26.628 26.685 0 14.715 11.946 26.685 26.628 26.685h19.27c6.411 0 11.626 5.227 11.626 11.652 0 6.426-5.216 11.652-11.626 11.652h-38.399c-4.143 0-7.5 3.365-7.5 7.516 0 4.152 3.357 7.516 7.5 7.516h38.399c14.683 0 26.627-11.97 26.627-26.684s-11.945-26.684-26.627-26.684h-19.27c-6.412 0-11.627-5.228-11.627-11.652 0-6.428 5.215-11.654 11.627-11.654zm84.685 0h38.398c4.143 0 7.5-3.365 7.5-7.516s-3.357-7.516-7.5-7.516h-38.398c-14.683 0-26.628 11.971-26.628 26.685 0 14.715 11.946 26.685 26.628 26.685h19.27c6.411 0 11.626 5.227 11.626 11.652 0 6.426-5.216 11.652-11.626 11.652h-38.399c-4.143 0-7.5 3.365-7.5 7.516 0 4.152 3.357 7.516 7.5 7.516h38.399c14.683 0 26.627-11.97 26.627-26.684s-11.945-26.684-26.627-26.684h-19.27c-6.412 0-11.627-5.228-11.627-11.652-.002-6.428 5.215-11.654 11.627-11.654zm94.319-15.033c-19.996 0-36.263 16.303-36.263 36.341v47.85c0 4.152 3.357 7.516 7.5 7.516s7.5-3.365 7.5-7.516v-30.821h42.525v30.821c0 4.152 3.357 7.516 7.5 7.516s7.5-3.365 7.5-7.516v-47.85c0-20.039-16.267-36.341-36.262-36.341zm-21.263 38.338v-1.996c0-11.749 9.538-21.309 21.263-21.309 11.724 0 21.263 9.559 21.263 21.309v1.996h-42.526z" fill="#8c8c8c"></path>
		</symbol>
	
		<symbol id="icon-password" viewBox="0 0 512 512">
			<circle cx="370" cy="346" r="20"></circle><path d="M460 362c11.046 0 20-8.954 20-20v-74c0-44.112-35.888-80-80-80h-24.037v-70.534C375.963 52.695 322.131 0 255.963 0s-120 52.695-120 117.466V188H112c-44.112 0-80 35.888-80 80v164c0 44.112 35.888 80 80 80h288c44.112 0 80-35.888 80-80 0-11.046-8.954-20-20-20s-20 8.954-20 20c0 22.056-17.944 40-40 40H112c-22.056 0-40-17.944-40-40V268c0-22.056 17.944-40 40-40h288c22.056 0 40 17.944 40 40v74c0 11.046 8.954 20 20 20zM335.963 188h-160v-70.534c0-42.715 35.888-77.466 80-77.466s80 34.751 80 77.466V188z"></path><circle cx="219" cy="346" r="20"></circle><circle cx="144" cy="346" r="20"></circle><circle cx="294" cy="346" r="20"></circle>
		</symbol>
	
		<symbol id="icon-peugeot" viewBox="0 0 512 512">
			<g fill="#2c44bf"><path d="M507.998 512H4.002a4 4 0 0 1-4-4V4a4 4 0 0 1 4-4h503.996a4 4 0 0 1 4 4v504a4 4 0 0 1-4 4z"></path><path d="M508 512H4a4 4 0 0 1-4-4V4a4 4 0 0 1 4-4h504a4 4 0 0 1 4 4v504a4 4 0 0 1-4 4z"></path></g><path d="M486.24 0v512h21.754a4 4 0 0 0 4-4V4a4 4 0 0 0-4-4H486.24z" fill="#263aa3"></path><g fill="#ccc"><path d="M472.309 447.994c-8.396-25.044-42.237-87.854-68.795-123.189-5.748-7.706-3.595-11.662-.515-14.144 3.049-2.493 21.943-6.841 33.635-20.212 11.847-13.536 14.041-40.084 5.666-62.192-8.303-21.902-60.265-101.607-53.219-123.828 4.11-12.96 11.559-13.279 16.73-13.227 2.153 3.08 5.295 16.905 10.786 31.451 8.767 23.148 31.245 38.261 38.343 41.31 4.945 2.163 5.81-1.689 5.378-3.533-.433-1.844-7.757-30.524-13.248-52.086-5.748-22.602-8.653-27.485-13.743-32.286-8.138-7.706-20.531-11.847-30.987-11.476-23.354.927-33.697 23.488-34.964 25.59-1.123 1.865-1.556 3.194-3.904 1.556-6.706-4.687-33.202-42.083-46.08-47.749-23.014-10.127-65.725-16.133-76.243-14.175-17.853 3.338-28.804 7.448-42.206 14.484-7.407 3.915-8.272 6.531-9.715 8.396-1.092 1.432-2.297 3.194-4.976 4.079-4.45 1.442-21.005 7.623-26.702 10.93-3.533 2.04-5.46 4.224-3.647 8.221 3.163 7.067 12.702 21.788 16.874 25.497 2.524 2.215 14.34.742 17.307-1.349 4.419-3.111 12.702-5.264 17.101-5.666 3.369-.288 5.429-.402 7.16.865 1.72 1.267 5.717 5.522 7.098 9.797 1.38 4.255.515 5.872-1.865 6.871-1.792.762-21.695 8.025-31.451 11.579-2.812 1.03-3.956 4.388-2.359 6.923 3.369 5.398 8.973 13.403 13.196 14.68 5.141 1.576 7.871-.093 13.681-4.234 5.151-3.729 8.509-3.709 9.952-2.668 1.545 1.175 4.656 3.822 3.853 6.47-1.36 4.564-10.611 15.525-12.393 17.76-1.669 2.133-8.077 7.376-11.074 5.934 0 0-.01 0-.021-.01-.083-.041-.206-.103-.371-.175-.082-.041-.185-.093-.299-.134-10.188-4.626-111.228-48.82-123.95-47.234-4.728.587-24.065 19.769-24.673 25.703-.422 4.255 4.316 12.96 4.832 13.567.525.659 1.38 1.834 3.976 1.545 2.606-.288 9.169-3.678 17.008-2.328 7.108 1.236 7.819 6.82 8.169 11.074.051.742.979 2.411 2.957 2.349 2.854-.031 7.273.062 12.362 2.503 6.325 2.988 18.77 12.651 20.676 14.804 1.576 1.731 1.463 3.307-1.494 3.595-15.844 1.411-39.909 6.13-51.055 9.776-5.295 1.731-11.229 3.884-15.556 6.851-2.132 1.453-3.884 3.101-4.976 4.996-3.74 6.49-8.448 16.926-9.807 24.343-.979 5.408 6.696 13.289 10.93 17.163a4.836 4.836 0 0 0 5.573.7c4.399-2.369 12.918-6.511 19.295-6.882 5.429-.319 8.911 6.676 8.911 6.676s27.403-7.314 55.98-11.033c16.73-2.174 33.851-3.121 46.121-.649 11.589 11.837 27.897 34.047 27.897 34.047s-45.678 81.405-49.108 88.997c-2.575 5.707-3.956 37.663-4.358 48.82a4.545 4.545 0 0 1-3.946 4.337c-9.375 1.226-33.553 4.512-44.184 7.129-12.105 3.019-16.617 5.862-18.832 15.236-1.669 7.304-4.193 25.415-4.481 33.811-.144 3.389 4.11 4.162 4.11 4.162s119.933 0 123.384.319c4.368.433 5.233-.082 4.945-3.132-.402-4.028-1.154-16.875-1.329-24.549-.227-7.675-1.38-15.473 5.553-22.942 6.902-7.51 58.988-65.602 61.893-68.569 2.503-2.524 4.203-5.223 8.077-1.69 3.915 3.585 46.801 34.521 55.516 40.847 8.705 6.325 16.813 8.458 26.733 8.602 7.067.134 9.055 12.476 3.049 13.65-6.181 1.175-15.618 3.101-22.2 4.605-10.137 2.38-13.248 5.687-16.297 12.527-2.617 5.779-5.491 34.151-5.573 36.623-.082 1.762 2.617 3.739 2.617 3.739s44.947.082 76.017.175h.021c15.638.052 27.753.113 28.855.165 3.595.268 3.946-.258 5.748-3.07 3.08-4.801 12.249-15.412 20.212-21.933 2.277-1.854 3.286-3.091 3.42-4.718v-.021c.102-1.213-.29-2.655-1.001-4.746zm-93.581-171.628c-6.181 2.009-10.199.288-13.217-2.586s-27.598-32.451-35.51-41.506c-3.987-4.574-6.954-14.979 5.007-19.409 9.859-3.565 27.485-9.231 32.368-11.816 4.893-2.586 7.479-5.233 7.932-10.261.412-5.027.433-10.693.464-12.589.031-1.823 2.287-3.286 3.585-1.463.072.093.124.185.175.278.865 1.587 5.264 10.178 10.642 20.13 8.056 14.979 18.224 33.656 21.531 41.681 3.101 7.675 1.586 13.537-3.194 19.429-6.439 7.964-25.26 16.649-29.783 18.112z"></path><path d="M185.6 101.153c-1.745-2.737-4.008-5.023-5.195-5.892-1.725-1.266-3.795-1.151-7.16-.864-1.888.173-4.492.671-7.198 1.426 1.837 2.489 3.509 4.508 4.723 5.589 2.056 1.798 10.245 1.166 14.83-.259z"></path></g><path d="M469.88 457.48c-7.96 6.52-17.13 17.13-20.21 21.94-1.8 2.81-2.15 3.33-5.75 3.07-1.1-.06-13.21-.12-28.85-.17h-.02c1.05-.36 1.61-1.22 2.69-2.9 3.08-4.81 12.25-15.42 20.21-21.94 4-3.24 4.09-4.6 2.42-9.49-8.4-25.04-18.05-35.62-37.57-75.28-20.09-40.82-32.89-57.99 1.9-82.26 14.76-10.29 29.56-29.99 17.67-50.42-56.83-97.69-64.04-134.78-55-149.86.91-1.52 6.56-13.7 18.43-20.71 4.56-2.7 10.05-4.62 16.54-4.88 10.45-.37 22.85 3.77 30.98 11.48 5.09 4.8 8 9.68 13.75 32.28 5.49 21.57 12.81 50.25 13.24 52.09.44 1.84-.43 5.7-5.37 3.53-7.1-3.05-29.58-18.16-38.35-41.31-5.31-14.07-8.43-27.48-10.57-31.12l-.01-.01c-.07-.12-.13-.22-.2-.32-5.17-.05-12.62.27-16.73 13.23-7.05 22.22 44.91 101.93 53.22 123.83 8.37 22.1 6.18 48.65-5.67 62.19-11.69 13.37-30.59 17.72-33.63 20.21-3.08 2.48-5.24 6.44.51 14.15 26.56 35.33 60.4 98.14 68.8 123.18 1.66 4.89 1.57 6.25-2.43 9.49z" fill="#a6a6a6"></path><path d="M83.464 257.253s34.804-9.282 66.865-12.247c-20.16-2.922-50.787 1.832-72.595 6.242 3.569 1.687 5.73 6.005 5.73 6.005z" fill="#ccc"></path><path d="M454.94 163.96c-7.1-3.05-29.58-18.16-38.35-41.31-5.31-14.07-8.43-27.48-10.57-31.12l-.01-.01c-2.71-11.8-5.02-12.46-9.01-16.14-1.36-1.26-6.43-3.75-11.2-5.92 4.56-2.7 10.05-4.62 16.54-4.88 10.45-.37 22.85 3.77 30.98 11.48 5.09 4.8 8 9.68 13.75 32.28 5.49 21.57 12.81 50.25 13.24 52.09.44 1.84-.43 5.7-5.37 3.53z" fill="#8c8c8c"></path><path d="M379.353 176.738c-1.298-1.823-3.554-.361-3.585 1.463-.031 1.896-.052 7.562-.464 12.589-.453 5.027-3.039 7.675-7.932 10.261-4.883 2.586-22.509 8.252-32.368 11.816-11.96 4.43-8.993 14.835-5.007 19.409 7.912 9.055 32.492 38.632 35.51 41.506-6.294 3.513-28.124 8.746-48.357-22.417-13.741-21.164-9.371-42.269.607-50.214 4.86-3.87 26.151-10.051 37.397-17.005 10.358-6.406 18.42-16.906 24.199-7.408z" fill="#a6a6a6"></path><path d="M190.24 139.548c.459.547.922 1.072 1.385 1.568a11.163 11.163 0 0 0-1.385-1.568z" fill="#ccc"></path><path d="M289.382 360.962c-7.652-5.636-33.331 11.085-41.881 19.175-3.012 2.85-39.2 42.182-46.1 49.684-6.929 7.474-12.746 45.455-12.343 49.479.15 1.594-.021 2.491-.837 2.928 15.443.047 26.8.113 27.828.208 4.369.43 5.231-.088 4.944-3.135-.403-4.024-1.149-16.875-1.323-24.548-.229-7.678-1.38-15.47 5.548-22.944 5.294-5.757 48.291-53.277 64.164-70.847z" fill="#8c8c8c"></path><path d="M169.048 168.373c2.99 1.438 9.402-3.805 11.07-5.931.367-.462 1.062-1.307 1.93-2.378-32.435-13.993-95.808-40.481-105.713-39.247-1.64.204-5.04 2.65-8.806 6.002 35.681 12.455 98.181 39.961 101.519 41.554zm-117.519 88.88s-2.997-6.006-7.77-6.619c2.013 2.404 4.24 4.586 5.926 6.129a4.85 4.85 0 0 0 5.577.696 95.911 95.911 0 0 1 4.441-2.241c-5.12 1.221-8.174 2.035-8.174 2.035z" fill="#ccc"></path><path d="M473.325 452.765h-31.956S172.246 177.769 76.337 120.82c12.723-1.587 113.762 42.608 123.95 47.234.113.041.216.093.299.134.165.072.288.134.371.175.01.01.021.01.021.01S332.027 274.141 397.546 362.16l75.759 90.584.02.021zm-287.758-207.19c-12.269-2.472-29.391-1.525-46.121.649-26.28-13.495-63.16-27.66-85.906-35.964 4.327-2.967 10.26-5.12 15.556-6.851 11.146-3.647 35.211-8.365 51.055-9.776 2.957-.288 3.07-1.865 1.494-3.595l63.922 55.537zM221.605 78.43a7.504 7.504 0 0 1-7.095-5.072 7.5 7.5 0 0 1 4.666-9.525l10.749-3.681a7.501 7.501 0 0 1 4.859 14.191l-10.749 3.681a7.5 7.5 0 0 1-2.43.406z" fill="#a6a6a6"></path>
		</symbol>
	
		<symbol id="icon-renault" viewBox="0 0 512 512">
			<path d="M465.469 254.01l-144.181-252A3.996 3.996 0 0 0 317.825 0H194.177a4 4 0 0 0-3.464 2.01l-144.181 252a3.99 3.99 0 0 0 0 3.98l144.181 252c.09.15.18.3.279.43 0 .01.01.01.01.01.319.42.719.76 1.158 1.02.469.28.988.45 1.537.51.16.03.319.04.479.04h123.649c1.427 0 2.755-.77 3.463-2.01l144.181-252a3.99 3.99 0 0 0 0-3.98zm-281.683 3.88a4.022 4.022 0 0 1 0-3.78l72.215-134.58 72.215 134.58c.629 1.18.629 2.6 0 3.78l-72.215 134.58-72.215-134.58z" fill="#ccc"></path><path d="M317.825 0h-23.37l146.469 256-146.469 256h23.37a3.991 3.991 0 0 0 3.464-2.011l144.18-252a4.005 4.005 0 0 0 0-3.978l-144.18-252A3.991 3.991 0 0 0 317.825 0z" fill="#8c8c8c"></path><path d="M317.766 4.42l-10.051 18.74-38.868 72.44-12.846 23.93-72.215 134.58a3.966 3.966 0 0 0 0 3.78l72.215 134.58-12.846 23.93-40.185 74.9v.01l-8.594 16.01-2.216 4.13-.12.21a2.615 2.615 0 0 1-.799-.75c-.04-.07-.08-.13-.12-.2l-.409-.72-144.181-252a3.99 3.99 0 0 1 0-3.98l144.181-252A3.999 3.999 0 0 1 194.176 0H315.13c2.266 0 3.714 2.42 2.636 4.42z" fill="#ccc"></path><path d="M317.766 4.42l-10.051 18.74-38.868 72.44-12.846 23.93-72.215 134.58a3.966 3.966 0 0 0 0 3.78l72.215 134.58-12.846 23.93-40.185 74.9v.01l-8.594 16.01-2.216 4.13-.12.21a2.615 2.615 0 0 1-.799-.75c-.04-.07-.08-.13-.12-.2l-.409-.72-144.181-252a3.99 3.99 0 0 1 0-3.98l144.181-252A3.999 3.999 0 0 1 194.176 0H315.13c2.266 0 3.714 2.42 2.636 4.42z" fill="#e3e3e3"></path><path d="M294.455 0l-136.35 254.106a4.004 4.004 0 0 0 0 3.788l85.054 158.509 12.842-23.935-72.213-134.574a4.004 4.004 0 0 1 0-3.788L317.766 4.421C318.839 2.422 317.394 0 315.129 0h-20.674z" fill="#8c8c8c"></path><path d="M353.898 257.89L217.543 512h-24.255c-.449 0-.878-.13-1.248-.34l.12-.21 2.216-4.13 8.594-16.01v-.01l40.185-74.9 12.846-23.93 72.215-134.58c.629-1.18.629-2.6 0-3.78l-72.215-134.58 12.846-23.93 85.051 158.51c.639 1.18.639 2.6 0 3.78z" fill="#a6a6a6"></path>
		</symbol>
	
		<symbol id="icon-search" viewBox="0 0 129 129">
			<path d="M51.6 96.7c11 0 21-3.9 28.8-10.5l35 35c.8.8 1.8 1.2 2.9 1.2s2.1-.4 2.9-1.2c1.6-1.6 1.6-4.2 0-5.8l-35-35c6.5-7.8 10.5-17.9 10.5-28.8 0-24.9-20.2-45.1-45.1-45.1-24.8 0-45.1 20.3-45.1 45.1 0 24.9 20.3 45.1 45.1 45.1zm0-82c20.4 0 36.9 16.6 36.9 36.9C88.5 72 72 88.5 51.6 88.5S14.7 71.9 14.7 51.6c0-20.3 16.6-36.9 36.9-36.9z"></path>
		</symbol>
	
		<symbol id="icon-suzuki" viewBox="0 0 512 512">
			<path d="M491.033 181.478l-13.085 8.262c-56.126 35.407-124.093 30.236-178.286-8.087l-90.588-64.056c-3.199-2.266-9.824-1.391-14.495 3.307-4.67 4.687-5.154 11.219-.123 14.958l282.412 209.682c.072.062.113.093.113.093 2.16 1.607 2.15 4.656.37 6.315a4.827 4.827 0 0 1-.504.402c-.093.062-.185.124-.288.175a4.792 4.792 0 0 1-.617.278c-2.51.927-5.01 1.885-7.499 2.874-.154.062-.298.113-.453.175a279.835 279.835 0 0 0-6.563 2.679c-.144.062-.278.113-.422.175-106.708 44.936-191.268 139.949-204.57 152.723-.73.69-1.841.762-2.644.155L30.746 344.431l-5.226-3.914a2.104 2.104 0 0 1-.504-.546 2.056 2.056 0 0 1-.278-1.545c.041-.216.123-.422.237-.618.123-.196.267-.381.453-.535l.751-.629c51.652-43.504 123.775-42.979 178.677-3.688l82.914 59.348c4.084 2.926 10.534 5.161 15.77-1.566 5.226-6.727 4.259-15.103-1.039-19.058L21.653 162.214c-2.345-1.751-2.16-5.316.339-6.83C155.498 74.711 230.831 9.594 241.118.518c.72-.639 1.78-.69 2.551-.134l247.467 177.664a2.067 2.067 0 0 1-.103 3.43z" fill="#e82934"></path><path d="M289.172 406.406c-6.172 5.666-18.982-1.994-23.066-4.919l-70.498-50.453c-50.16-35.912-114.691-39.445-164.861-6.604l-5.226-3.914a2.104 2.104 0 0 1-.504-.546 2.056 2.056 0 0 1-.278-1.545c.051-.216.123-.422.237-.618.123-.196.267-.381.453-.535l.751-.629c51.652-43.504 123.775-42.979 178.677-3.688l82.914 59.348c4.084 2.926 10.534 5.161 15.77-1.566-.001 0-10.197 11.84-14.369 15.669zM491.14 178.047L243.673.388a2.047 2.047 0 0 0-2.551.128c-2.029 1.79-6.598 5.767-13.628 11.601 2.294 2.042 4.6 4.138 6.929 6.342l240.865 172.919c.889-.537 1.775-1.084 2.658-1.641l13.092-8.26a2.072 2.072 0 0 0 .102-3.43zm-13.789 173.904a4.827 4.827 0 0 1-.504.402c-.093.062-.185.124-.288.175a3.758 3.758 0 0 1-.617.288c-.413.153-.824.31-1.237.464a331.942 331.942 0 0 0-6.262 2.4c-.154.062-.298.113-.453.175a367.997 367.997 0 0 0-6.563 2.679c-.144.062-.278.113-.422.175L185.207 153.931c-8.585-8.597 6.717-32.512 9.372-33.027-4.67 4.687-5.154 11.219-.123 14.958l282.412 209.682c.072.062.113.093.113.093 2.16 1.606 2.15 4.656.37 6.314z" fill="#c7232c"></path>
		</symbol>
	
		<symbol id="icon-toyota" viewBox="0 0 512 512">
			<path d="M256 85C114.608 85 0 161.559 0 256s114.608 171 256 171c141.382 0 256-76.559 256-171S397.382 85 256 85zm128.494 66.958c7.541 5.573 7.52 16.688-.041 22.251-10.312 7.571-28.485 16.564-53.621 23.116a159.457 159.457 0 0 0-1.525-5.202c-11.322-36.765-32.296-63.888-57.34-72.088 56.486 2.688 95.406 19.252 112.527 31.923zm-172.503 89.301c14.134 1.607 28.897 2.462 44.009 2.462s29.865-.855 43.999-2.462c.309 4.419.474 8.972.474 13.639 0 59.963-26.774 99.747-44.473 99.747-17.709 0-44.483-39.783-44.483-99.747 0-4.667.165-9.22.474-13.639zm81.446-37.012c-11.59 1.36-24.086 2.132-37.437 2.132-4.389 0-8.684-.082-12.877-.247-.041 0-.072 0-.103-.01a309.84 309.84 0 0 1-24.467-1.875c9.148-30.677 25.394-49.106 37.447-49.106 12.043 0 28.289 18.429 37.437 49.106zm-165.901-52.413c13.217-9.704 39.363-21.756 76.512-27.988.628-.103 1.277-.216 1.926-.319 10.508-1.689 21.871-2.915 34.058-3.492-26.218 8.581-47.965 37.888-58.865 77.28-25.178-6.572-43.371-15.606-53.672-23.229a13.76 13.76 0 0 1 .041-22.252zM271.504 394.18c-.865.051-1.731.082-2.596.113h-.031c-4.265.175-8.561.258-12.877.258-118.213 0-218.079-63.445-218.079-138.551 0-28.998 14.876-56.245 39.95-78.773 8.911 24.888 46.193 46.335 96.59 57.738a225.895 225.895 0 0 0-.865 19.933c0 75.91 36.891 137.449 82.404 137.449 45.503 0 82.394-61.539 82.394-137.449 0-6.768-.288-13.423-.865-19.933 50.396-11.403 87.679-32.85 96.59-57.738 25.064 22.529 39.95 49.775 39.95 78.773 0 71.799-91.264 132.937-202.565 138.18zm57.804-202.058a97.217 97.217 0 0 0 1.525 5.202c-.485-1.751-.99-3.492-1.525-5.202z" fill="#ccc"></path><g fill="#8c8c8c"><path d="M127.495 174.085c10.302 7.623 28.495 16.657 53.672 23.229-43.638-1.751-66.989-14.453-74.372-21.492s-4.814-18.436 2.747-23.988c17.142-12.588 37.516-20.221 96.432-28.308-.649.103-1.298.216-1.926.319-37.148 6.232-63.294 18.285-76.512 27.988a13.76 13.76 0 0 0-.041 22.252zM256 85c-4.319 0-8.611.074-12.878.215C378.521 89.696 486.245 164.443 486.245 256S378.521 422.304 243.122 426.785c4.267.141 8.559.215 12.878.215 141.382 0 256-76.559 256-171S397.382 85 256 85z"></path><path d="M337.529 234.965c.577 6.51.865 13.165.865 19.933 0 75.91-36.891 137.449-82.394 137.449-4.378 0-8.684-.577-12.877-1.679 39.384-10.312 68.589-46.582 68.589-115.178 0-.072.927-20.726.927-20.798-.01-11.352 13.691-17.801 24.89-19.727zm-6.697-37.641c-.748.288-1.589.524-2.499.714-11.756 2.46-23.659-4.066-28.185-15.19-13.027-32.017-37.231-55.321-60.116-62.814 11.59-2.843 21.428-1.7 31.936 0 25.044 8.2 46.018 35.323 57.34 72.088a97.21 97.21 0 0 0 1.524 5.202z"></path></g>
		</symbol>
	
		<symbol id="icon-user" viewBox="0 0 512 512">
			<path d="M437.02 330.98c-27.883-27.882-61.071-48.523-97.281-61.018C378.521 243.251 404 198.548 404 148 404 66.393 337.607 0 256 0S108 66.393 108 148c0 50.548 25.479 95.251 64.262 121.962-36.21 12.495-69.398 33.136-97.281 61.018C26.629 379.333 0 443.62 0 512h40c0-119.103 96.897-216 216-216s216 96.897 216 216h40c0-68.38-26.629-132.667-74.98-181.02zM256 256c-59.551 0-108-48.448-108-108S196.449 40 256 40s108 48.448 108 108-48.449 108-108 108z"></path>
		</symbol>
	
		<symbol id="icon-volkswagen" viewBox="0 0 512 512">
			<path d="M256 0C114.669 0 0 114.599 0 255.955 0 397.402 114.669 512 256 512s256-114.598 256-256.045C512 114.599 397.331 0 256 0z" fill="#3e5594"></path><path d="M256 0c-3.625 0-7.228.094-10.817.244C381.5 5.916 490.366 118.225 490.366 255.955c0 137.818-108.866 250.129-245.183 255.801 3.589.15 7.192.244 10.817.244 141.331 0 256-114.598 256-256.045C512 114.599 397.331 0 256 0z" fill="#2d3e6c"></path><path d="M255.998 475.963c-121.275 0-219.938-98.68-219.938-219.976S134.723 36.006 255.998 36.006 475.94 134.691 475.94 255.987s-98.667 219.976-219.942 219.976z" fill="#fff"></path><g fill="#2d3e6c"><path d="M205.016 80.749c-.555-1.228.109-2.674 1.407-3.034C222.203 73.337 238.827 71 256.002 71c17.148 0 33.758 2.333 49.52 6.702 1.298.36 1.962 1.805 1.408 3.033l-48.921 108.44c-.78 1.728-3.234 1.729-4.015.001L205.016 80.749z"></path><path d="M357.431 101.258a186.07 186.07 0 0 1 47.226 44.6c.478.644.566 1.5.236 2.231l-82.941 183.54c-.752 1.664-3.087 1.743-3.949.132l-30.189-56.395a2.203 2.203 0 0 0-1.942-1.163h-59.738c-.812 0-1.558.447-1.942 1.163l-30.187 56.391c-.862 1.611-3.198 1.532-3.949-.134l-82.819-183.708a2.215 2.215 0 0 1 .238-2.231 185.98 185.98 0 0 1 47.093-44.422c1.117-.734 2.631-.296 3.201.913l66.451 141.033a2.203 2.203 0 0 0 1.992 1.264h59.793a2.2 2.2 0 0 0 1.993-1.266l66.231-141.031c.568-1.212 2.084-1.651 3.202-.917zM79.87 213.918c-.863-1.917-3.682-1.654-4.154.394A185.627 185.627 0 0 0 71 255.998c0 70.22 39.119 131.299 96.752 162.639 1.849 1.005 3.918-.932 3.054-2.85L79.87 213.918z"></path><path d="M204.822 433.829c16.25 4.671 33.424 7.171 51.181 7.171 17.733 0 34.884-2.495 51.121-7.152l-51.121-113.524-51.181 113.505zm136.384-18.05c-.867 1.919 1.203 3.858 3.053 2.853C401.886 387.289 441 326.214 441 255.998c0-14.184-1.594-27.996-4.617-41.265-.467-2.05-3.287-2.317-4.153-.401l-91.024 201.447z"></path></g>
		</symbol>
	
		<symbol id="icon-volvo" viewBox="0 0 512 512">
			<path fill="#2d3e6c" d="M17.345 185.61h469.88v131.4H17.345z"></path><path d="M432.152 23.186l-30.301 30.301C360.123 23.186 308.779 5.323 253.268 5.323 113.388 5.323 0 118.744 0 258.667 0 398.579 113.388 512 253.268 512s253.268-113.421 253.268-253.333c0-57.392-19.078-110.33-51.239-152.809a2.996 2.996 0 0 1 .26-3.933l27.657-27.667-51.062-51.072zM253.268 429.39c-94.266 0-170.68-76.435-170.68-170.723 0-94.299 76.414-170.734 170.68-170.734s170.68 76.435 170.68 170.734c0 94.287-76.414 170.723-170.68 170.723z" fill="#ccc"></path><path d="M432.152 23.186l-30.301 30.301C360.123 23.186 308.779 5.323 253.268 5.323 113.388 5.323 0 118.744 0 258.667 0 398.579 113.388 512 253.268 512s253.268-113.421 253.268-253.333c0-57.392-19.078-110.33-51.239-152.809a2.996 2.996 0 0 1 .26-3.933l27.657-27.667-51.062-51.072zM253.268 429.39c-94.266 0-170.68-76.435-170.68-170.723 0-94.299 76.414-170.734 170.68-170.734s170.68 76.435 170.68 170.734c0 94.287-76.414 170.723-170.68 170.723z" fill="#ccc"></path><path d="M455.557 101.925l27.657-27.667-51.062-51.073-27.906 27.906a4.004 4.004 0 0 1-5.148.423c-41.224-29.103-91.534-46.193-145.83-46.193-4.504 0-8.986.119-13.436.347C106.204 12.659 0 123.247 0 258.667 0 398.579 113.388 512 253.268 512s253.268-113.421 253.268-253.333c0-57.392-19.078-110.33-51.239-152.809a2.999 2.999 0 0 1 .26-3.933zM253.268 429.39c-94.266 0-170.68-76.435-170.68-170.723 0-94.299 76.414-170.734 170.68-170.734s170.68 76.435 170.68 170.734c0 94.287-76.414 170.723-170.68 170.723z" fill="#ccc"></path><path d="M82.589 258.667c0-89.731 69.191-163.282 157.114-170.198a172.982 172.982 0 0 0-13.566-.536c-94.266 0-170.68 76.435-170.68 170.734 0 94.288 76.414 170.723 170.68 170.723 4.567 0 9.09-.184 13.566-.536-87.924-6.916-157.114-80.467-157.114-170.187zm303.654-205.18c-7.253 0-14.326-2.151-20.406-6.104-36.775-23.908-81.505-36.896-126.188-41.691.054 0 .109-.011.185-.022 4.45-.228 8.932-.347 13.436-.347 54.192 0 104.413 17.025 145.592 46.025.935.659-12.619 2.139-12.619 2.139zm69.314 48.438l27.657-27.667-51.062-51.073-13.567 13.567 16.202 16.205c11.762 11.765 11.763 30.836.002 42.602l-.585.585c-4.324 4.326-4.88 11.131-1.342 16.121 29.314 41.342 46.543 91.86 46.543 146.401 0 135.36-106.131 245.918-239.702 252.97 4.492.237 9.014.363 13.566.363 139.88 0 253.268-113.421 253.268-253.333 0-57.392-19.078-110.33-51.239-152.809a2.996 2.996 0 0 1 .259-3.932z" fill="#8c8c8c"></path><path d="M201.468 216.36h-6.361c-13.202 0-23.942 10.74-23.942 23.942v23.058c0 13.202 10.74 23.942 23.942 23.942h6.361c13.202 0 23.942-10.74 23.942-23.942v-23.058c0-13.202-10.741-23.942-23.942-23.942zm8.942 47c0 4.931-4.011 8.942-8.942 8.942h-6.361c-4.931 0-8.942-4.011-8.942-8.942v-23.058c0-4.931 4.011-8.942 8.942-8.942h6.361c4.931 0 8.942 4.011 8.942 8.942v23.058zm70.788 8.942h-31.746V223.86a7.5 7.5 0 0 0-15 0v55.942a7.5 7.5 0 0 0 7.5 7.5h39.246c4.143 0 7.5-3.358 7.5-7.5s-3.357-7.5-7.5-7.5zm101.077-55.942h-6.361c-13.201 0-23.941 10.74-23.941 23.942v23.058c0 13.202 10.74 23.942 23.941 23.942h6.361c13.202 0 23.942-10.74 23.942-23.942v-23.058c.001-13.202-10.739-23.942-23.942-23.942zm8.943 47c0 4.931-4.012 8.942-8.942 8.942h-6.361c-4.931 0-8.941-4.011-8.941-8.942v-23.058c0-4.931 4.011-8.942 8.941-8.942h6.361c4.931 0 8.942 4.011 8.942 8.942v23.058zm-226.864-47h-15.946a7.5 7.5 0 0 0-3.6 14.08l-9.367 26.703-9.051-25.802c3.961-.203 7.113-3.469 7.113-7.48a7.5 7.5 0 0 0-7.5-7.5h-15.946a7.5 7.5 0 0 0 0 15h.444l17.863 50.924a7.5 7.5 0 0 0 14.154 0l17.863-50.924h3.973a7.5 7.5 0 0 0 0-15.001zm178.601 0h-15.946a7.5 7.5 0 0 0-7.5 7.5c0 3.428 2.303 6.313 5.445 7.208l-9.147 26.075-9.146-26.075c3.141-.895 5.444-3.779 5.444-7.208a7.5 7.5 0 0 0-7.5-7.5H288.66c-4.143 0-7.5 3.358-7.5 7.5s3.357 7.5 7.5 7.5h2.208l17.862 50.924a7.5 7.5 0 0 0 14.154 0l17.863-50.924h2.208c4.143 0 7.5-3.358 7.5-7.5s-3.357-7.5-7.5-7.5z" fill="#ebebeb"></path><path d="M400.358 6.828l104.814 104.814c2.52 2.52 6.828.735 6.828-2.828V4a4 4 0 0 0-4-4H403.186c-3.564 0-5.348 4.309-2.828 6.828z" fill="#ccc"></path><path d="M486.301 0v92.772l18.87 18.87c2.52 2.52 6.828.735 6.828-2.828V4a4 4 0 0 0-4-4h-21.698z" fill="#8c8c8c"></path>
		</symbol>
	
</svg>
