<?xml version="1.0" encoding="UTF-8"?><svg xmlns="http://www.w3.org/2000/svg" xmlns:xlink="http://www.w3.org/1999/xlink" version="1.1" id="Layer_1" x="0px" y="0px" viewBox="0 0 48 48" xml:space="preserve"><circle cx="24" cy="24" r="20" fill="#FFD54F"/><circle cx="24" cy="24" r="19" fill="#1A237E"/><path d="M25.209 8.414c.294-.061.845-.373.845-1.03 0-.984-.886-1.298-1.442-1.298l-1.731-.021v3.852h1.174V8.619l.948 1.298 1.545.226-1.339-1.729zm-.803-.557h-.371l-.021-.927.35-.021c.32 0 .546.217.556.453.011.237-.153.495-.514.495z" fill="#FFD54F"/><path d="M30.341 7.172a2.401 2.401 0 0 0-.443-.044l-.063.001c-1.012.021-1.87.634-2.074 1.637-.205.999.703 2.181 1.812 2.433 1.204.273 2.326-.298 2.579-1.595.217-1.11-.599-2.201-1.811-2.432zm-.57 2.985c-.585-.111-.874-.677-.771-1.214.089-.469.424-.751.925-.749.071 0 .144.007.217.021.585.111.956.617.854 1.153-.103.535-.64.9-1.225.789z" fill="#FFD54F"/><path d="M15.692 8.146l-1.05.556.494 4.346 1.113-.824-.144-.659 1.215-.721.556.412 1.278-.515-3.462-2.595zm.288 2.43l-.247-1.05.885.68-.638.37z" fill="#FFD54F"/><path fill="#FFD54F" d="M35.323 10.082l-3.296 2.287.968.761 1.586-1.235-.804 1.997.412.391 2.02-.823-1.216 1.648.742 1.05 2.327-3.337-.741-.885-1.895.762.762-1.916z"/><path fill="#FFD54F" d="M11.695 11.009l-1.606 1.853 2.802 2.492.783-.905-1.072-.948.783-.845-.68-.617-.782.865-.392-.371.845-.927z"/><path fill="#FFD54F" d="M39.896 15.891l-3.502 1.421.989 2.308.926-.392-.514-1.175.433-.205.494 1.132.844-.35-.473-1.092.411-.185.494 1.174.866-.349z"/><path fill="#FFD54F" d="M7.905 16.324l-.493 1.091 3.418 1.586 1.093-2.225-.845-.433-.659 1.154z"/><path d="M39.875 20.587c-1.344 0-2.019 1.102-2.019 2.204s.798 2.205 2.019 2.205 2.039-.999 2.039-2.205c0-1.185-.715-2.204-2.039-2.204zm.026 3.214c-.58 0-.918-.489-.918-1.009s.325-1.009.918-1.009.938.554.938 1.009c0 .444-.359 1.009-.938 1.009z" fill="#FFD54F"/><path d="M10.152 21.803l.185-1.339-4.017 1.318-.144 1.194 3.811 2.06-.021-1.38-.576-.267.086-1.418.676-.168zm-1.628 1.185l-1.092-.506 1.14-.285-.048.791z" fill="#FFD54F"/><path id="path2885_2_" d="M24.25 11.435c6.823.133 12.315 5.71 12.315 12.565S31.074 36.428 24.25 36.562V11.435z" fill="#0277BD"/><path id="path2883_2_" d="M19.198 12.25v10.051h4.663v2.967h-4.663v10.508a12.849 12.849 0 0 1-2.988-1.736v-8.772h-4.858a12.671 12.671 0 0 1 .053-2.967l.018-.128-.018.128h4.804v-8.314a12.844 12.844 0 0 1 2.989-1.737z" fill="#B71C1C"/><path id="path2881_2_" d="M15.985 14.322z" fill="#FAF18E"/><path id="path2877_2_" d="M11.506 25.363l.013.113-.013-.113z" fill="#FAF18E"/><path id="path2869_2_" d="M15.873 33.583l.111.094-.111-.094z" fill="#FAF18E"/><path id="rect3726_2_" fill="#B71C1C" d="M27.431 15.667h4.322v.603h-4.322z"/><path id="path2780_1_" d="M24 11.001c-7.173 0-13 5.827-13 13S16.827 37 24 37s13-5.826 13-12.999-5.827-13-13-13zm.25.435c4.785.094 8.915 2.864 10.956 6.876a4.092 4.092 0 0 0-.08-.104c-.5-.621-1.13-1.033-1.666-1.378a.253.253 0 0 0-.34.064.816.816 0 0 1-.668.317h-2.315a.54.54 0 0 0-.322.101.429.429 0 0 0-.18.338v.264c-.001.002-.003.006-.013.013a.208.208 0 0 1-.117.036H27.51l.002-.166v-.003a.938.938 0 0 0-.394-.754l-.004-.003-.003-.002-.872-.591-.001-.001-.001-.001a.773.773 0 0 0-.44-.132.715.715 0 0 0-.573.329.768.768 0 0 0 .223 1.032l.409.313.003.003.003.002c.086.062.134.136.134.156l-.01.663v.004c0 .008-.001.01-.002.013a.283.283 0 0 1-.079-.018c-.097-.032-.17-.073-.284-.116s-.26-.077-.449-.077a1.016 1.016 0 0 0-.922.571v-7.749zm-5.071.956v9.918h4.568v2.928h-4.568v10.369a12.574 12.574 0 0 1-2.927-1.713v-8.656h-4.759a12.65 12.65 0 0 1 .053-2.928h4.706v-8.204a12.563 12.563 0 0 1 2.927-1.714zm8.519 1.932a.373.373 0 1 0 .001.745.373.373 0 0 0-.001-.745zm.947 0a.373.373 0 1 0 .001.745.373.373 0 0 0-.001-.745zm.947 0a.373.373 0 1 0 .001.745.373.373 0 0 0-.001-.745zm.947 0a.373.373 0 1 0 .001.745.373.373 0 0 0-.001-.745zm.947 0a.373.373 0 1 0 .001.745.373.373 0 0 0-.001-.745zm-4.055.972v.603h4.322v-.603h-4.322zm0 .811v.603h4.322v-.603h-4.322zm-1.62.703a.24.24 0 0 1 .149.05l.87.59a.46.46 0 0 1 .18.343l-.01.815v.003c0 .321.162.594.372.785.124.113.265.201.417.256a1.251 1.251 0 0 0-.417.256 1.07 1.07 0 0 0-.372.785v.003l.01.818a.47.47 0 0 1-.188.345l-.864.586c-.084.055-.135.055-.184.043a.222.222 0 0 1-.129-.096c-.065-.099-.093-.215.094-.349l.003-.003.003-.003.416-.317c.141-.101.337-.27.337-.56v-.004l-.01-.667a.506.506 0 0 0-.195-.412c-.144-.109-.349-.122-.545-.058-.14.046-.232.095-.305.123s-.136.045-.271.045a.479.479 0 0 1-.393-.173.57.57 0 0 1-.133-.338v-.05c0-.093.045-.236.133-.338s.204-.173.393-.173c.135 0 .197.017.271.045s.165.077.305.123c.196.064.402.051.545-.058a.511.511 0 0 0 .195-.415l.01-.663v-.004c0-.291-.203-.464-.344-.565l-.41-.313-.003-.003-.003-.003c-.187-.134-.159-.249-.094-.349a.22.22 0 0 1 .129-.096l.038-.004zm7.553.559c.481.314.98.669 1.37 1.154.438.544.748 1.244.748 2.276 0 1.939-1.811 3.496-3.552 3.496h-4.209a.434.434 0 0 0-.316.139c-.074.085-.104.187-.103.285s.032.198.106.281a.432.432 0 0 0 .314.139h4.109c1.477 0 2.265.951 2.265 2.073 0 1.094-.818 2.122-2.255 2.122h-4.234a.39.39 0 0 0-.279.121.376.376 0 0 0-.095.253.377.377 0 0 0 .095.25.388.388 0 0 0 .278.121h3.151c.678 0 1.255.661 1.255 1.292 0 .32-.091.616-.292.831s-.523.371-1.063.371h-1.89a.373.373 0 0 0-.227.069.318.318 0 0 0-.129.258c.003.104.063.194.133.244s.148.068.224.068h1.253c.177 0 .308.077.411.203a.747.747 0 0 1 .163.442.587.587 0 0 1-.179.439.529.529 0 0 1-.317.123.441.441 0 0 0-.04-.253.427.427 0 0 0-.353-.209h-.752c-.262 0-.551-.099-.765-.285-.214-.186-.36-.451-.36-.831 0-.35.146-.599.354-.778.207-.179.483-.273.686-.273h1.848c.083 0 .165-.014.243-.062s.158-.147.158-.27a.328.328 0 0 0-.158-.27.45.45 0 0 0-.242-.061h-2.896c-1.114 0-1.735-.788-1.735-1.639 0-.758.65-1.657 1.634-1.657h4.309a.425.425 0 0 0 .31-.138c.072-.083.1-.183.099-.278s-.03-.192-.101-.275a.421.421 0 0 0-.308-.138h-4.389c-1.227 0-2.198-.91-2.198-2.284 0-1.148.939-2.325 2.328-2.325h3.978c.217 0 .412-.098.531-.24s.172-.318.173-.491-.051-.35-.17-.493a.702.702 0 0 0-.534-.241h-4.245l-.003-.238c0-.147.08-.295.208-.412s.3-.183.406-.183h2.379c.092 0 .183-.021.273-.083s.173-.195.173-.361c0-.171-.051-.257-.173-.361a.464.464 0 0 0-.273-.083h-2.379a.696.696 0 0 1-.406-.183.582.582 0 0 1-.208-.414l.002-.146h2.903a.695.695 0 0 0 .423-.14.503.503 0 0 0 .21-.396v-.215h1.412a1.34 1.34 0 0 0 .913-.344zm2.561 2.663c.415 1.248.64 2.582.64 3.969 0 4.389-2.251 8.253-5.662 10.5.133-.189.195-.418.195-.643a1.2 1.2 0 0 0-.278-.761l-.023-.025c.572-.028 1.007-.221 1.29-.524.306-.327.428-.758.428-1.174 0-.615-.345-1.208-.866-1.534h.191c1.684 0 2.757-1.272 2.757-2.625 0-1.147-.746-2.175-1.987-2.481 1.782-.335 3.374-1.938 3.374-3.932a4.658 4.658 0 0 0-.059-.77zm-11.675.089a1.016 1.016 0 0 0 .922.571c.188 0 .335-.034.449-.077s.187-.084.284-.116a.283.283 0 0 1 .079-.018c.001.003.002.005.002.013v.004l.01.667c0 .02-.048.091-.134.153l-.003.002-.003.003-.415.318a.76.76 0 0 0-.217 1.027.728.728 0 0 0 .351.285 2.856 2.856 0 0 0-.633 1.767c0 1.396.905 2.454 2.106 2.72-.899.307-1.463 1.206-1.463 2.049 0 1.106.876 2.141 2.237 2.141h.099c-.022.017-.045.034-.066.052-.302.26-.528.662-.528 1.159 0 .517.219.937.532 1.21s.712.409 1.096.409h.63c-.013.046-.028.089-.028.089a.25.25 0 0 0 .181.348c.18.036.35.038.504.012a12.512 12.512 0 0 1-5.991 1.655l-.001-16.443zm3.261 1.31h4.239c.086 0 .117.023.148.06a.267.267 0 0 1 .053.168c0 .068-.024.132-.056.17s-.064.06-.146.06h-3.978c-.121 0-.239.008-.355.022a.9.9 0 0 0 .095-.401v-.079z" fill="#FFD54F"/><path id="path3826_2_" d="M25.811 16.81a.24.24 0 0 1 .149.05l.87.59a.46.46 0 0 1 .18.343l-.01.815v.003c0 .321.162.594.372.785.124.113.265.201.417.256a1.251 1.251 0 0 0-.417.256 1.07 1.07 0 0 0-.372.785v.003l.01.818a.47.47 0 0 1-.188.345l-.864.586c-.084.055-.135.055-.184.043a.222.222 0 0 1-.129-.096c-.065-.099-.093-.215.094-.349l.003-.003.003-.003.416-.317c.141-.101.337-.27.337-.56v-.004l-.01-.667a.506.506 0 0 0-.195-.412c-.144-.109-.349-.122-.545-.058-.14.046-.232.095-.305.123s-.136.045-.271.045a.479.479 0 0 1-.393-.173.57.57 0 0 1-.133-.338v-.05c0-.093.045-.236.133-.338s.204-.173.393-.173c.135 0 .197.017.271.045s.165.077.305.123c.196.064.402.051.545-.058a.511.511 0 0 0 .195-.415l.01-.663v-.004c0-.291-.203-.464-.344-.565l-.41-.313-.003-.003-.003-.003c-.187-.134-.159-.249-.094-.349a.22.22 0 0 1 .129-.096l.038-.004z" fill="#B71C1C"/><path id="path3824_2_" d="M33.364 17.369c.481.314.98.669 1.37 1.154.438.544.748 1.244.748 2.276 0 1.939-1.811 3.496-3.552 3.496h-4.209a.434.434 0 0 0-.316.139c-.074.085-.104.187-.103.285s.032.198.106.281a.432.432 0 0 0 .314.139h4.109c1.477 0 2.265.951 2.265 2.073 0 1.094-.818 2.122-2.255 2.122h-4.234a.39.39 0 0 0-.279.121.376.376 0 0 0-.095.253.377.377 0 0 0 .095.25.388.388 0 0 0 .278.121h3.151c.678 0 1.255.661 1.255 1.292 0 .32-.091.616-.292.831s-.523.371-1.063.371h-1.89a.373.373 0 0 0-.227.069.318.318 0 0 0-.129.258c.003.104.063.194.133.244s.148.068.224.068h1.253c.177 0 .308.077.411.203a.747.747 0 0 1 .163.442.587.587 0 0 1-.179.439.529.529 0 0 1-.317.123.441.441 0 0 0-.04-.253.427.427 0 0 0-.353-.209h-.752c-.262 0-.551-.099-.765-.285-.214-.186-.36-.451-.36-.831 0-.35.146-.599.354-.778.207-.179.483-.273.686-.273h1.848c.083 0 .165-.014.243-.062s.158-.147.158-.27a.328.328 0 0 0-.158-.27.45.45 0 0 0-.242-.061h-2.896c-1.114 0-1.735-.788-1.735-1.639 0-.758.65-1.657 1.634-1.657h4.309a.425.425 0 0 0 .31-.138c.072-.083.1-.183.099-.278s-.03-.192-.101-.275a.421.421 0 0 0-.308-.138h-4.389c-1.227 0-2.198-.91-2.198-2.284 0-1.148.939-2.325 2.328-2.325h3.978c.217 0 .412-.098.531-.24s.172-.318.173-.491-.051-.35-.17-.493a.702.702 0 0 0-.534-.241h-4.245l-.003-.238c0-.147.08-.295.208-.412s.3-.183.406-.183h2.379c.092 0 .183-.021.273-.083s.173-.195.173-.361c0-.171-.051-.257-.173-.361a.464.464 0 0 0-.273-.083h-2.379a.696.696 0 0 1-.406-.183.582.582 0 0 1-.208-.414l.002-.146h2.903a.695.695 0 0 0 .423-.14.503.503 0 0 0 .21-.396v-.215h1.412a1.34 1.34 0 0 0 .913-.344z" fill="#2E7D32"/><path d="M23.747 11.436v10.371h-4.066v-9.612a12.545 12.545 0 0 1 4.066-.759zM11.624 21.807h4.126v-7.285a12.547 12.547 0 0 0-4.126 7.285zm4.126 11.67V25.74h-4.197a12.538 12.538 0 0 0 4.197 7.737zm3.932 2.325c1.272.465 2.64.731 4.066.76V25.74h-4.066v10.062z" fill="#FFF"/><metadata><rdf:RDF xmlns:rdf="http://www.w3.org/1999/02/22-rdf-syntax-ns#" xmlns:rdfs="http://www.w3.org/2000/01/rdf-schema#" xmlns:dc="http://purl.org/dc/elements/1.1/"><rdf:Description about="https://iconscout.com/legal#licenses" dc:title="alfa,romeo" dc:description="alfa,romeo" dc:publisher="Iconscout" dc:date="2017-12-15" dc:format="image/svg+xml" dc:language="en"><dc:creator><rdf:Bag><rdf:li>Icons8</rdf:li></rdf:Bag></dc:creator></rdf:Description></rdf:RDF></metadata></svg>