<svg xmlns="http://www.w3.org/2000/svg" xmlns:xlink="http://www.w3.org/1999/xlink" width="0" height="0" style="position:absolute">
	
		<symbol id="icon-button-add" viewBox="0 0 20 18">
			<defs><path id="a" d="M185 642h13v-2h-11zm10.7-15.4l-2.3-2.3c-.4-.4-1-.4-1.4 0l-1.8 1.8 3.8 3.8 1.7-1.9c.4-.4.4-1 0-1.4zM178 642h3.8l11-11.1-3.8-3.8-11 11.1z"></path></defs><use xlink:href="#a" transform="translate(-178 -624)"></use>
		</symbol>
	
		<symbol id="icon-embarrassed" viewBox="0 0 512 512">
			<path d="M191.889 224.485a7.5 7.5 0 0 0-7.499 7.499v12.025c0 6.915-5.625 12.541-12.541 12.541s-12.541-5.625-12.541-12.541v-16.033c0-6.915 5.625-12.541 12.541-12.541a7.5 7.5 0 0 0 0-14.998c-15.186 0-27.54 12.354-27.54 27.54v16.033c-.001 15.186 12.354 27.54 27.54 27.54s27.54-12.354 27.54-27.54v-12.025a7.501 7.501 0 0 0-7.5-7.5zm168.344 0a7.5 7.5 0 0 0-7.499 7.499v12.025c0 6.915-5.625 12.541-12.541 12.541s-12.542-5.625-12.542-12.541v-16.033c0-6.915 5.627-12.541 12.542-12.541a7.5 7.5 0 0 0 0-14.998c-15.186 0-27.541 12.354-27.541 27.54v16.033c0 15.186 12.355 27.54 27.541 27.54s27.54-12.354 27.54-27.54v-12.025a7.5 7.5 0 0 0-7.5-7.5z"></path><path d="M448.305 87.097a7.5 7.5 0 0 0-11.259 9.909c40.418 45.922 61.672 104.986 59.847 166.314-1.833 61.598-26.854 119.533-70.453 163.132-85.706 85.706-222.422 94.331-318.013 20.065a7.498 7.498 0 0 0-10.523 1.321 7.499 7.499 0 0 0 1.321 10.523c46.231 35.917 101.515 53.584 156.619 53.584 65.933 0 131.609-25.296 181.201-74.89 46.314-46.313 72.893-107.857 74.841-173.291 1.937-65.139-20.642-127.881-63.581-176.667zm-251.076 51.46c-2.912-2.932-7.656-2.946-10.597-.043-.231.228-23.724 22.987-76.938 38.191a7.5 7.5 0 0 0 2.056 14.711c.682 0 1.376-.094 2.064-.291 57.324-16.378 82.368-40.951 83.406-41.989 2.923-2.922 2.922-7.649.009-10.579z"></path><path d="M345.754 372.586c-12.421-40.618-48.494-67.908-89.763-67.908s-77.341 27.29-89.762 67.907c-1.232 4.029-.23 8.443 2.615 11.521 2.838 3.068 6.958 4.362 11.023 3.46 24.261-5.387 49.873-8.117 76.124-8.117 26.252 0 51.865 2.731 76.125 8.117a11.78 11.78 0 0 0 2.552.282c3.184 0 6.227-1.316 8.469-3.741 2.846-3.077 3.849-7.492 2.617-11.521zm-89.763-8.137c-25.28 0-50.016 2.438-73.619 7.248 11.855-31.338 40.794-52.022 73.619-52.022 32.824 0 61.765 20.683 73.619 52.022-23.603-4.81-48.339-7.248-73.619-7.248zM424.956 63.749C376.171 20.81 313.427-1.764 248.288.169 182.853 2.117 121.31 28.696 74.997 75.01c-38.148 38.148-62.9 86.36-71.581 139.425-8.478 51.823-1.102 104.164 21.327 151.39-.419 3.544-.65 7.047-.65 10.484 0 30.656 24.941 55.597 55.597 55.597s55.596-24.942 55.596-55.598c0-20.43-7.817-45.506-23.236-74.533a7.5 7.5 0 1 0-13.246 7.036c14.055 26.458 21.483 49.798 21.483 67.495 0 22.386-18.212 40.599-40.599 40.599S39.09 398.693 39.09 376.307c0-35.08 28.021-80.538 40.607-99.184.79 1.167 1.639 2.439 2.537 3.805a7.499 7.499 0 0 0 10.386 2.147 7.498 7.498 0 0 0 2.147-10.386c-5.288-8.043-8.926-12.907-9.079-13.11a7.499 7.499 0 0 0-11.999 0c-1.564 2.085-30.275 40.716-43.283 81.241-14.846-39.411-19.076-81.866-12.189-123.964 8.17-49.946 31.472-95.328 67.385-131.241 43.599-43.599 101.534-68.62 163.132-70.453 61.33-1.829 120.392 19.428 166.314 59.847a7.497 7.497 0 0 0 10.584-.675 7.502 7.502 0 0 0-.676-10.585z"></path><path d="M402.405 176.704c-53.214-15.204-76.707-37.963-76.921-38.174a7.498 7.498 0 0 0-10.605 0 7.498 7.498 0 0 0 0 10.605c1.038 1.038 26.082 25.612 83.407 41.989.687.197 1.38.291 2.063.291a7.5 7.5 0 0 0 2.056-14.711z"></path>
		</symbol>
	
		<symbol id="icon-left-arrow-chevron" viewBox="0 0 370.814 370.814">
			<path d="M292.92 24.848L268.781 0 77.895 185.401l190.886 185.413 24.139-24.853-165.282-160.56z"></path>
		</symbol>
	
		<symbol id="icon-line-chart" viewBox="0 0 512.001 512.001">
			<path d="M457.637 134.681c-29.976 0-54.363 24.387-54.363 54.363a54.022 54.022 0 0 0 8.831 29.647l-58.733 58.733a54.028 54.028 0 0 0-29.648-8.831 54.049 54.049 0 0 0-30.576 9.441l-59.338-59.347a54.023 54.023 0 0 0 8.828-29.644c0-29.976-24.387-54.363-54.363-54.363s-54.363 24.387-54.363 54.363c0 10.931 3.254 21.108 8.827 29.641L84.004 277.42a54.02 54.02 0 0 0-29.641-8.827C24.387 268.593 0 292.981 0 322.957s24.387 54.363 54.363 54.363 54.363-24.387 54.363-54.363a54.028 54.028 0 0 0-8.831-29.648l58.733-58.733a54.028 54.028 0 0 0 29.648 8.831 54.02 54.02 0 0 0 29.646-8.831l59.666 59.674a54.03 54.03 0 0 0-8.226 28.706c0 29.976 24.387 54.363 54.363 54.363s54.363-24.387 54.363-54.363a54.026 54.026 0 0 0-8.827-29.641l58.736-58.736a54.025 54.025 0 0 0 29.641 8.827c29.976 0 54.363-24.387 54.363-54.363 0-29.977-24.388-54.362-54.364-54.362zM54.363 354.849c-17.586 0-31.893-14.307-31.893-31.892 0-17.586 14.307-31.893 31.893-31.893 17.585 0 31.893 14.307 31.893 31.893 0 17.585-14.307 31.892-31.893 31.892zm133.913-133.913c-17.585 0-31.893-14.307-31.893-31.893 0-17.585 14.307-31.893 31.893-31.893s31.893 14.307 31.893 31.893-14.307 31.893-31.893 31.893zm135.448 133.913c-17.585 0-31.893-14.307-31.893-31.893s14.307-31.893 31.893-31.893c17.585 0 31.893 14.307 31.893 31.893-.001 17.586-14.308 31.893-31.893 31.893zm133.913-133.913c-17.585 0-31.893-14.307-31.893-31.893 0-17.585 14.307-31.893 31.893-31.893 17.585 0 31.893 14.307 31.893 31.893s-14.308 31.893-31.893 31.893z"></path><path d="M176.774 272.717c-4.388-4.387-11.501-4.387-15.889 0l-22.854 22.854c-4.387 4.387-4.387 11.501.001 15.889 2.194 2.194 5.069 3.291 7.944 3.291s5.751-1.098 7.944-3.291l22.854-22.854c4.389-4.387 4.389-11.502 0-15.889zm197.188-71.778c-4.388-4.387-11.5-4.387-15.89.001l-22.854 22.854c-4.387 4.387-4.387 11.501 0 15.889a11.206 11.206 0 0 0 7.945 3.29c2.876 0 5.75-1.098 7.944-3.291l22.854-22.854c4.388-4.388 4.388-11.502.001-15.889z"></path>
		</symbol>
	
		<symbol id="icon-list" viewBox="68 0 512 512">
			<path d="M7.5 235.71a7.5 7.5 0 0 1-7.5-7.5V27.5C0 12.336 12.336 0 27.5 0h321.719c15.164 0 27.5 12.336 27.5 27.5v35.719c0 4.144-3.356 7.5-7.5 7.5a7.5 7.5 0 0 1-7.5-7.5V27.5c0-6.895-5.606-12.5-12.5-12.5H27.5C20.605 15 15 20.605 15 27.5v200.71c0 4.142-3.36 7.5-7.5 7.5zM349.219 512H151.16c-4.144 0-7.5-3.355-7.5-7.5s3.356-7.5 7.5-7.5h198.06c6.894 0 12.5-5.605 12.5-12.5V97.738a7.5 7.5 0 1 1 15 0V484.5c0 15.164-12.336 27.5-27.5 27.5zm-232.582 0H27.5C12.336 512 0 499.664 0 484.5V262.73c0-4.14 3.355-7.5 7.5-7.5s7.5 3.36 7.5 7.5V484.5c0 6.895 5.605 12.5 12.5 12.5h89.14a7.5 7.5 0 1 1-.003 15zm0 0"></path><path d="M86.871 134.434c-20.7 0-37.543-16.84-37.543-37.543 0-20.7 16.844-37.54 37.543-37.54 20.7 0 37.543 16.84 37.543 37.54 0 20.703-16.844 37.543-37.543 37.543zm0-60.082c-12.43 0-22.543 10.109-22.543 22.539s10.113 22.543 22.543 22.543 22.543-10.114 22.543-22.543-10.113-22.54-22.543-22.54zm233.019 60.082H137.376a7.5 7.5 0 0 1-7.5-7.5 7.5 7.5 0 0 1 7.5-7.5h182.516c4.144 0 7.5 3.355 7.5 7.5 0 4.144-3.356 7.5-7.5 7.5zM86.871 240.508c-20.7 0-37.543-16.844-37.543-37.543 0-20.703 16.844-37.543 37.543-37.543 20.7 0 37.543 16.84 37.543 37.543 0 20.7-16.844 37.543-37.543 37.543zm0-60.086c-12.43 0-22.543 10.113-22.543 22.543s10.113 22.543 22.543 22.543 22.543-10.113 22.543-22.543-10.113-22.543-22.543-22.543zm233.019 60.086H137.376a7.5 7.5 0 1 1 0-15h182.516c4.144 0 7.5 3.355 7.5 7.5a7.5 7.5 0 0 1-7.5 7.5zM86.871 346.578c-20.7 0-37.543-16.84-37.543-37.543 0-20.7 16.844-37.543 37.543-37.543 20.7 0 37.543 16.844 37.543 37.543 0 20.703-16.844 37.543-37.543 37.543zm0-60.086c-12.43 0-22.543 10.113-22.543 22.543s10.113 22.543 22.543 22.543 22.543-10.113 22.543-22.543-10.113-22.543-22.543-22.543zm233.019 60.086H137.376c-4.14 0-7.5-3.355-7.5-7.5s3.36-7.5 7.5-7.5h182.516c4.144 0 7.5 3.356 7.5 7.5s-3.356 7.5-7.5 7.5zM86.871 452.648c-20.7 0-37.543-16.84-37.543-37.539 0-20.703 16.844-37.543 37.543-37.543 20.7 0 37.543 16.84 37.543 37.543 0 20.7-16.844 37.54-37.543 37.54zm0-60.082c-12.43 0-22.543 10.114-22.543 22.543s10.113 22.54 22.543 22.54 22.543-10.11 22.543-22.54-10.113-22.543-22.543-22.543zm233.019 60.082H137.376a7.5 7.5 0 1 1 0-15h182.516a7.5 7.5 0 0 1 7.5 7.5c0 4.145-3.356 7.5-7.5 7.5zm0 0"></path>
		</symbol>
	
		<symbol id="icon-login" viewBox="0 0 512 512">
			<path d="M356.453 243.741l-54.781-38.621c-9.926-6.997-23.644.128-23.644 12.26v23.621H15c-8.284 0-15 6.716-15 15s6.716 15 15 15h263.028v23.62c0 12.212 13.791 19.203 23.643 12.26l54.781-38.62c8.464-5.965 8.457-18.547.001-24.52z"></path><path d="M278.406 22.407c-86.155 0-161.824 46.757-202.333 116.783-4.148 7.171-1.698 16.347 5.473 20.495 7.172 4.148 16.347 1.696 20.495-5.474 35.237-60.91 101.094-101.804 176.365-101.804C390.668 52.407 482 143.738 482 256.001s-91.332 203.594-203.594 203.594c-75.317 0-141.153-40.934-176.366-101.807-4.148-7.171-13.323-9.62-20.495-5.474-7.171 4.148-9.622 13.324-5.473 20.495 40.519 70.047 116.201 116.785 202.334 116.785C407.514 489.595 512 385.119 512 256.001c0-129.109-104.475-233.594-233.594-233.594z"></path>
		</symbol>
	
		<symbol id="icon-password" viewBox="0 0 512 512">
			<circle cx="370" cy="346" r="20"></circle><path d="M460 362c11.046 0 20-8.954 20-20v-74c0-44.112-35.888-80-80-80h-24.037v-70.534C375.963 52.695 322.131 0 255.963 0s-120 52.695-120 117.466V188H112c-44.112 0-80 35.888-80 80v164c0 44.112 35.888 80 80 80h288c44.112 0 80-35.888 80-80 0-11.046-8.954-20-20-20s-20 8.954-20 20c0 22.056-17.944 40-40 40H112c-22.056 0-40-17.944-40-40V268c0-22.056 17.944-40 40-40h288c22.056 0 40 17.944 40 40v74c0 11.046 8.954 20 20 20zM335.963 188h-160v-70.534c0-42.715 35.888-77.466 80-77.466s80 34.751 80 77.466V188z"></path><circle cx="219" cy="346" r="20"></circle><circle cx="144" cy="346" r="20"></circle><circle cx="294" cy="346" r="20"></circle>
		</symbol>
	
		<symbol id="icon-search" viewBox="0 0 129 129">
			<path d="M51.6 96.7c11 0 21-3.9 28.8-10.5l35 35c.8.8 1.8 1.2 2.9 1.2s2.1-.4 2.9-1.2c1.6-1.6 1.6-4.2 0-5.8l-35-35c6.5-7.8 10.5-17.9 10.5-28.8 0-24.9-20.2-45.1-45.1-45.1-24.8 0-45.1 20.3-45.1 45.1 0 24.9 20.3 45.1 45.1 45.1zm0-82c20.4 0 36.9 16.6 36.9 36.9C88.5 72 72 88.5 51.6 88.5S14.7 71.9 14.7 51.6c0-20.3 16.6-36.9 36.9-36.9z"></path>
		</symbol>
	
		<symbol id="icon-user" viewBox="0 0 512 512">
			<path d="M437.02 330.98c-27.883-27.882-61.071-48.523-97.281-61.018C378.521 243.251 404 198.548 404 148 404 66.393 337.607 0 256 0S108 66.393 108 148c0 50.548 25.479 95.251 64.262 121.962-36.21 12.495-69.398 33.136-97.281 61.018C26.629 379.333 0 443.62 0 512h40c0-119.103 96.897-216 216-216s216 96.897 216 216h40c0-68.38-26.629-132.667-74.98-181.02zM256 256c-59.551 0-108-48.448-108-108S196.449 40 256 40s108 48.448 108 108-48.449 108-108 108z"></path>
		</symbol>
	
</svg>
